# Stable collision mesh generated from geom_000
o competition_map_collision
v -3.861588 1.006394 0
v -3.861588 -6.493606 0
v -3.861588 1.006394 2
v -3.861588 -6.493606 2
v -3.661588 0.806394 0.2
v -3.661588 -6.293606 0.2
v -3.661588 -0.591098 0.35
v -3.661588 -1.091098 0.35
v -3.661588 -0.591098 0.85
v -3.661588 -1.091098 0.85
v -3.661588 0.806394 2
v -3.661588 -6.293606 2
v -3.660588 -0.591098 0.35
v -3.660588 -1.091098 0.35
v -3.660588 -0.591098 0.85
v -3.660588 -1.091098 0.85
v -3.235118 -0.441098 0.2
v -3.235118 -1.241098 0.2
v -2.835119 0.806394 0.2
v -2.835119 -0.441098 0.2
v -2.835119 -1.241098 0.2
v -2.835119 -6.293606 0.2
v -2.810118 0.806394 0.2
v -2.810118 -0.441098 0.2
v -2.810118 -1.241098 0.2
v -2.810118 -6.293606 0.2
v -2.435118 -0.441098 0.2
v -2.435118 -1.241098 0.2
v -0.308958 -2.431931 0.2
v -0.308958 -3.862179 0.2
v -0.308958 -2.431931 2.2
v -0.308958 -3.862179 2.2
v -0.298958 -2.441931 0.2
v -0.298958 -3.852179 0.2
v -0.298958 -2.441931 2.2
v -0.298958 -3.852179 2.2
v 1.181803 -2.441931 0.2
v 1.181803 -3.852179 0.2
v 1.181803 -2.441931 2.2
v 1.181803 -3.852179 2.2
v 1.191803 -2.431931 0.2
v 1.191803 -3.862179 0.2
v 1.191803 -2.431931 2.2
v 1.191803 -3.862179 2.2
v 3.191695 -6.293252 0.2
v 3.191695 -6.293252 2
v 3.192086 -6.293606 0.2
v 3.192086 -6.293606 2
v 3.245547 -3.700304 0.2
v 3.245547 -6.293252 0.2
v 3.245547 -6.293252 2
v 3.245547 -3.700304 2.2
v 3.245547 -6.293252 2.2
v 3.255547 -3.710365 0.2
v 3.255547 -6.293252 0.2
v 3.255547 -6.293252 2
v 3.255547 -3.710365 2.2
v 3.255547 -6.293252 2.2
v 3.385315 -3.711154 0.2
v 3.385315 -6.293252 0.2
v 3.385315 -6.293252 2
v 3.385315 -3.711154 2.2
v 3.385315 -6.293252 2.2
v 3.395315 -3.701215 0.2
v 3.395315 -6.293252 0.2
v 3.395315 -6.293252 2
v 3.395315 -3.701215 2.2
v 3.395315 -6.293252 2.2
v 3.638412 8.506747 0
v 3.638412 1.006394 0
v 3.638412 8.506747 2
v 3.638412 1.006394 2
v 3.66736 0.816394 2
v 3.66736 0.816394 2.2
v 3.674297 0.806394 0.2
v 3.674297 0.806394 2
v 3.698638 0.806394 0.2
v 3.698638 0.806394 2.2
v 3.710811 -6.493252 0
v 3.710811 -6.493252 2
v 3.711201 -6.493606 0
v 3.711201 -6.493606 2
v 3.830196 0.800694 0.2
v 3.830196 0.800694 2.2
v 3.838412 8.306747 0.2
v 3.838412 7.531215 0.2
v 3.838412 7.506215 0.2
v 3.838412 5.966673 0.2
v 3.838412 5.956673 0.2
v 3.838412 5.874869 0.2
v 3.838412 5.864869 0.2
v 3.838412 0.816394 0.2
v 3.838412 0.806394 0.2
v 3.838412 8.306747 2
v 3.838412 5.966673 2
v 3.838412 5.956673 2
v 3.838412 5.874869 2
v 3.838412 5.864869 2
v 3.838412 0.816394 2
v 3.838412 5.966673 2.2
v 3.838412 5.956673 2.2
v 3.838412 5.874869 2.2
v 3.838412 5.864869 2.2
v 3.838412 0.806394 2.2
v 3.843646 0.816394 0.2
v 3.843646 0.816394 2.2
v 4.90896 4.70745 0.2
v 4.90896 3.523995 0.2
v 4.90896 4.70745 2.2
v 4.90896 3.523995 2.2
v 4.91896 4.69745 0.2
v 4.91896 3.533995 0.2
v 4.91896 4.69745 2.2
v 4.91896 3.533995 2.2
v 5.971413 -2.504815 0.2
v 5.971413 -2.504815 2.2
v 5.976646 4.69745 0.2
v 5.976646 3.533995 0.2
v 5.976646 4.69745 2.2
v 5.976646 3.533995 2.2
v 5.981879 -2.484815 0.2
v 5.981879 -2.484815 2.2
v 5.986646 4.70745 0.2
v 5.986646 3.523995 0.2
v 5.986646 4.70745 2.2
v 5.986646 3.523995 2.2
v 6.109482 -2.484815 0.2
v 6.109482 -2.484815 2.2
v 6.147698 -2.504815 0.2
v 6.147698 -2.504815 2.2
v 6.918563 0.987921 0.2
v 6.918563 0.866239 0.2
v 6.918563 0.987921 2.2
v 6.918563 0.866239 2.2
v 6.928563 0.977921 0.2
v 6.928563 0.876239 0.2
v 6.928563 0.977921 2.2
v 6.928563 0.876239 2.2
v 7.235869 5.956673 0.2
v 7.235869 5.874869 0.2
v 7.235869 5.956673 2.2
v 7.235869 5.874869 2.2
v 7.245869 5.966673 0.2
v 7.245869 5.864869 0.2
v 7.245869 5.966673 2.2
v 7.245869 5.864869 2.2
v 7.672716 7.931215 0.2
v 7.672716 7.531215 0.2
v 7.672716 7.506215 0.2
v 7.672716 7.131215 0.2
v 8.010385 3.738451 0.2
v 8.010385 2.554996 0.2
v 8.010385 3.738451 2.2
v 8.010385 2.554996 2.2
v 8.020385 3.728451 0.2
v 8.020385 2.564996 0.2
v 8.020385 3.728451 2.2
v 8.020385 2.564996 2.2
v 8.472715 7.931215 0.2
v 8.472715 7.531215 0.2
v 8.472715 7.506215 0.2
v 8.472715 7.131215 0.2
v 9.183839 3.728451 0.2
v 9.183839 2.564996 0.2
v 9.183839 3.728451 2.2
v 9.183839 2.564996 2.2
v 9.193839 3.738451 0.2
v 9.193839 2.554996 0.2
v 9.193839 3.738451 2.2
v 9.193839 2.554996 2.2
v 10.824373 0.987921 0.2
v 10.824373 0.977921 0.2
v 10.824373 0.876239 0.2
v 10.824373 0.866239 0.2
v 10.824373 0.987921 2.2
v 10.824373 0.977921 2.2
v 10.824373 0.876239 2.2
v 10.824373 0.866239 2.2
v 10.938413 8.306747 0.2
v 10.938413 7.531215 0.2
v 10.938413 7.506215 0.2
v 10.938413 -6.293252 0.2
v 10.938413 8.306747 2
v 10.938413 -6.293252 2
v 11.138412 8.506747 0
v 11.138412 -6.493252 0
v 11.138412 8.506747 2
v 11.138412 -6.493252 2
vn -0.447213595 0.894427191 0
vn -0.892687735 -0.450675724 0
vn -0.894427191 0.447213595 0
vn -0.443764816 -0.896143285 0
vn 0.946294453 -0.323306058 0
vn 0.989979855 0.141208664 0
vn 1 0 0
vn 1 0 0
vn 1 0 0
vn 1 0 0
vn 0.606967898 -0.794726349 0
vn 0.632175939 0.774824872 0
vn 0 0 1
vn 0 0 1
vn 0 0 1
vn 0 0 1
vn 0 0 1
vn 0 0 1
vn 0 -1 0
vn 0 0 1
vn 0 0 1
vn 0 1 0
vn 0 -1 0
vn 0 0 1
vn 0 0 1
vn 0 1 0
vn 0 0 1
vn 0 0 1
vn -0.430166921 0.902749367 0
vn -0.885525201 -0.464591346 0
vn -0.885525201 0.464591346 0
vn -0.430166921 -0.902749367 0
vn 0.885397825 -0.464834047 0
vn 0.429933438 0.902860586 0
vn 0.429933438 -0.902860586 0
vn 0.885397825 0.464834047 0
vn -0.429933438 -0.902860586 0
vn -0.885397825 0.464834047 0
vn -0.885397825 -0.464834047 0
vn -0.429933438 0.902860586 0
vn 0.885525201 0.464591346 0
vn 0.430166921 -0.902749367 0
vn 0.430166921 0.902749367 0
vn 0.885525201 -0.464591346 0
vn -0.00329874362 0.999994559 0
vn -0.0133396835 0.999911022 0
vn -5.50754346e-05 0.999999998 0
vn -5.16540758e-05 0.999999999 0
vn -0.998155445 0.0607100293 0
vn -0.999784402 0.0207641609 0
vn -0.999832485 0.0183030468 0
vn -0.998623377 0.0524533223 0
vn -0.999992563 -0.00385658549 0
vn 0.999650458 -0.0264378785 0
vn 0.998740282 0.0501781646 0
vn 0.99898797 0.044978162 0
vn 0.995849113 -0.0910194762 0
vn 0.999970022 -0.0077430412 0
vn -0.998604521 -0.0528110917 0
vn -0.994986464 0.100009685 0
vn -0.999753043 0.0222227916 0
vn -0.998958512 -0.0456277478 0
vn -0.999992501 -0.00387279066 0
vn 0.999538091 0.0303908784 0
vn 0.324978524 0.945721396 0
vn 0.356718999 0.93421173 0
vn 0.994533955 0.104413661 0
vn 0.999970233 -0.00771570956 0
vn -0.447230434 0.894418771 0
vn -0.89443561 0.447196757 0
vn -0.89443561 0.447196757 0
vn -0.447230434 0.894418771 0
vn -0.0608200801 0.998148745 0
vn -0.861468535 -0.507810952 1.68502992e-06
vn -0.352816949 -0.935692364 0
vn -0.362452329 -0.932002312 3.56511254e-08
vn 0.837956849 0.545736492 0
vn 0.837956849 0.545736492 0
vn 9.5330155e-05 -0.999999995 0
vn 2.38306617e-05 -1 0
vn 2.33737607e-05 -1 0
vn 9.35022656e-05 -0.999999996 0
vn -0.824481921 -0.565888295 0
vn -0.822353463 -0.56897696 0
vn 0.108583998 -0.994087278 0
vn 1 0 0
vn 1 0 0
vn 0.751347568 0.659906684 0
vn 0.0481002778 -0.998842512 0
vn 0.0240710323 0.999710251 0
vn 0.828868744 -0.55944312 0
vn 0.999999866 0.000518374291 0
vn -0.0432862877 -0.999062709 0
vn 0.313024429 -0.949745075 0
vn 0.295004049 0.955496003 0
vn 0.0106873247 -0.999942889 0
vn 0.0213709883 0.999771614 0
vn 0.799990586 -0.600012551 0
vn 0.999951658 0.00983272509 0
vn -0.00293472726 0.999995694 0
vn -0.00588665389 -0.999982674 0
vn -0.00294336519 0.999995668 0
vn -0.00586937869 -0.999982775 0
vn -0.0432862877 -0.999062709 0
vn 0.82106533 0.570834235 0
vn 0.818992237 0.573804597 0
vn -0.481294283 0.876559076 0
vn -0.910102982 -0.414382145 0
vn -0.910102982 0.414382145 0
vn -0.481294283 -0.876559076 0
vn 0.910366531 -0.413802826 0
vn 0.481918877 0.876215839 0
vn 0.481918877 -0.876215839 0
vn 0.910366531 0.413802826 0
vn -0.810857159 -0.585244109 0
vn -0.784486946 -0.620145331 1.4029988e-07
vn -0.481918877 -0.876215839 0
vn -0.910366531 0.413802826 0
vn -0.910366531 -0.413802826 0
vn -0.481918877 0.876215839 0
vn 0.791838761 0.610730199 0
vn 0.814180312 0.580612108 0
vn 0.910102982 0.414382145 0
vn 0.481294283 -0.876559076 0
vn 0.481294283 0.876559076 0
vn 0.910102982 -0.414382145 0
vn -0.829110017 -0.559085485 0
vn -0.851400473 -0.524516192 0
vn 0.862180338 0.506601485 0
vn 0.831845608 0.555007103 0
vn -0.0155751611 0.9998787 0
vn -0.0621876035 -0.998064478 0
vn -0.0621876035 0.998064478 0
vn -0.0155751611 -0.9998787 0
vn 0.0521297215 -0.998640322 0
vn 0.0130490633 0.999914857 0
vn 0.0130490633 -0.999914857 0
vn 0.0521297215 0.998640322 0
vn -0.0126716188 -0.999919712 0
vn -0.0253371358 0.999678963 0
vn -0.0437363071 -0.99904311 0
vn -0.021883857 0.99976052 0
vn 0.0314337495 0.999505838 0
vn 0.0157227016 -0.999876391 0
vn 0.0271507381 0.999631351 0
vn 0.0542415322 -0.998527844 0
vn 0 0 1
vn 0 0 1
vn 0 0 1
vn 0 0 1
vn -0.447213898 0.89442704 0
vn -0.894427342 -0.447213293 0
vn -0.894427342 0.447213293 0
vn -0.447213898 -0.89442704 0
vn 0.894427345 -0.447213288 0
vn 0.447213903 0.894427037 0
vn 0.447213903 -0.894427037 0
vn 0.894427345 0.447213288 0
vn 0 0 1
vn 0 0 1
vn 0 0 1
vn 0 0 1
vn -0.447213903 -0.894427037 0
vn -0.894427345 0.447213288 0
vn -0.894427345 -0.447213288 0
vn -0.447213903 0.894427037 0
vn 0.894427342 0.447213293 0
vn 0.447213898 -0.89442704 0
vn 0.447213898 0.89442704 0
vn 0.894427342 -0.447213293 0
vn 0.00512050965 0.99998689 0
vn 0.00128342909 -0.999999176 0
vn 0.00513365294 0.999986823 0
vn 0.00128014315 -0.999999181 0
vn 0.00128014315 0.999999181 0
vn 0.00513365294 -0.999986823 0
vn 0.00128342909 0.999999176 0
vn 0.00512050965 -0.99998689 0
vn -0.0545336512 -0.998511933 0
vn -1 0 0
vn -1 0 0
vn -0.674938978 0.73787355 0
vn -0.908137368 -0.418672331 0
vn -0.966489435 0.256706394 0
vn 0.970142496 0.24253564 0
vn 0.710527875 -0.703669055 0
vn 0.707106758 0.707106805 0
vn 0.970691184 -0.240330243 0
f 5//5 7//7 8//8
f 7//7 5//5 9//9
f 9//9 5//5 11//11
f 9//9 11//11 10//10
f 10//10 11//11 12//12
f 10//10 12//12 8//8
f 8//8 12//12 6//6
f 8//8 6//6 5//5
f 50//50 45//45 51//51
f 51//51 45//45 46//46
f 61//61 60//60 56//56
f 56//56 60//60 55//55
f 90//90 89//89 97//97
f 97//97 89//89 96//96
f 94//94 95//95 88//88
f 88//88 87//87 94//94
f 94//94 87//87 86//86
f 94//94 86//86 85//85
f 99//99 92//92 98//98
f 98//98 92//92 91//91
f 75//75 76//76 23//23
f 23//23 76//76 11//11
f 23//23 11//11 19//19
f 19//19 11//11 5//5
f 80//80 82//82 79//79
f 79//79 82//82 81//81
f 188//188 80//80 186//186
f 186//186 80//80 79//79
f 187//187 188//188 185//185
f 185//185 188//188 186//186
f 71//71 187//187 69//69
f 69//69 187//187 185//185
f 72//72 71//71 70//70
f 70//70 71//71 69//69
f 3//3 72//72 1//1
f 1//1 72//72 70//70
f 4//4 3//3 2//2
f 2//2 3//3 1//1
f 82//82 4//4 81//81
f 81//81 4//4 2//2
f 48//48 46//46 47//47
f 47//47 46//46 45//45
f 184//184 182//182 66//66
f 66//66 182//182 65//65
f 182//182 184//184 181//181
f 181//181 184//184 183//183
f 181//181 183//183 180//180
f 180//180 183//183 179//179
f 183//183 94//94 179//179
f 179//179 94//94 85//85
f 12//12 48//48 47//47
f 47//47 26//26 12//12
f 12//12 26//26 22//22
f 12//12 22//22 6//6
f 178//178 134//134 174//174
f 174//174 134//134 132//132
f 177//177 178//178 173//173
f 173//173 178//178 174//174
f 138//138 177//177 136//136
f 136//136 177//177 173//173
f 137//137 138//138 135//135
f 135//135 138//138 136//136
f 176//176 137//137 172//172
f 172//172 137//137 135//135
f 175//175 176//176 171//171
f 171//171 176//176 172//172
f 133//133 175//175 131//131
f 131//131 175//175 171//171
f 134//134 133//133 132//132
f 132//132 133//133 131//131
f 43//43 44//44 41//41
f 41//41 44//44 42//42
f 31//31 43//43 29//29
f 29//29 43//43 41//41
f 32//32 31//31 30//30
f 30//30 31//31 29//29
f 44//44 32//32 42//42
f 42//42 32//32 30//30
f 40//40 39//39 38//38
f 38//38 39//39 37//37
f 39//39 35//35 37//37
f 37//37 35//35 33//33
f 35//35 36//36 33//33
f 33//33 36//36 34//34
f 36//36 40//40 34//34
f 34//34 40//40 38//38
f 169//169 170//170 167//167
f 167//167 170//170 168//168
f 153//153 169//169 151//151
f 151//151 169//169 167//167
f 154//154 153//153 152//152
f 152//152 153//153 151//151
f 170//170 154//154 168//168
f 168//168 154//154 152//152
f 166//166 165//165 164//164
f 164//164 165//165 163//163
f 165//165 157//157 163//163
f 163//163 157//157 155//155
f 157//157 158//158 155//155
f 155//155 158//158 156//156
f 158//158 166//166 156//156
f 156//156 166//166 164//164
f 125//125 126//126 123//123
f 123//123 126//126 124//124
f 109//109 125//125 107//107
f 107//107 125//125 123//123
f 110//110 109//109 108//108
f 108//108 109//109 107//107
f 126//126 110//110 124//124
f 124//124 110//110 108//108
f 120//120 119//119 118//118
f 118//118 119//119 117//117
f 119//119 113//113 117//117
f 117//117 113//113 111//111
f 113//113 114//114 111//111
f 111//111 114//114 112//112
f 114//114 120//120 112//112
f 112//112 120//120 118//118
f 53//53 52//52 51//51
f 51//51 52//52 49//49
f 51//51 49//49 50//50
f 56//56 58//58 51//51
f 51//51 58//58 53//53
f 55//55 54//54 56//56
f 56//56 54//54 57//57
f 56//56 57//57 58//58
f 62//62 57//57 59//59
f 59//59 57//57 54//54
f 63//63 62//62 61//61
f 61//61 62//62 59//59
f 61//61 59//59 60//60
f 66//66 68//68 61//61
f 61//61 68//68 63//63
f 65//65 64//64 66//66
f 66//66 64//64 67//67
f 66//66 67//67 68//68
f 52//52 67//67 49//49
f 49//49 67//67 64//64
f 84//84 104//104 83//83
f 83//83 104//104 93//93
f 128//128 84//84 127//127
f 127//127 84//84 83//83
f 122//122 128//128 121//121
f 121//121 128//128 127//127
f 78//78 122//122 77//77
f 77//77 122//122 121//121
f 130//130 116//116 129//129
f 129//129 116//116 115//115
f 106//106 130//130 105//105
f 105//105 130//130 129//129
f 105//105 92//92 99//99
f 73//73 74//74 99//99
f 99//99 74//74 106//106
f 99//99 106//106 105//105
f 74//74 73//73 76//76
f 75//75 115//115 76//76
f 76//76 115//115 116//116
f 76//76 116//116 74//74
f 93//93 104//104 77//77
f 77//77 104//104 78//78
f 102//102 142//142 97//97
f 97//97 142//142 140//140
f 97//97 140//140 90//90
f 98//98 103//103 97//97
f 97//97 103//103 102//102
f 91//91 144//144 98//98
f 98//98 144//144 146//146
f 98//98 146//146 103//103
f 145//145 146//146 143//143
f 143//143 146//146 144//144
f 100//100 145//145 95//95
f 95//95 145//145 143//143
f 95//95 143//143 88//88
f 96//96 101//101 95//95
f 95//95 101//101 100//100
f 89//89 139//139 96//96
f 96//96 139//139 141//141
f 96//96 141//141 101//101
f 142//142 141//141 140//140
f 140//140 141//141 139//139
