<?xml version="1.0" encoding="utf-8"?>
<COLLADA xmlns="http://www.collada.org/2005/11/COLLADASchema" version="1.4.1">
  <asset>
    <contributor><authoring_tool>Codex WRL to DAE converter</authoring_tool></contributor>
    <unit name="meter" meter="1"/>
    <up_axis>Z_UP</up_axis>
  </asset>
  <library_effects>

      <effect id="effect_000">
        <profile_COMMON>
          <technique sid="common">
            <lambert>
              <diffuse><color>0.894118 0.894118 0.894118 1.000000</color></diffuse>
            </lambert>
          </technique>
        </profile_COMMON>
      </effect>

      <effect id="effect_001">
        <profile_COMMON>
          <technique sid="common">
            <lambert>
              <diffuse><color>0.341176 0.839216 0.411765 1.000000</color></diffuse>
            </lambert>
          </technique>
        </profile_COMMON>
      </effect>

      <effect id="effect_002">
        <profile_COMMON>
          <technique sid="common">
            <lambert>
              <diffuse><color>0.341176 0.839216 0.411765 1.000000</color></diffuse>
            </lambert>
          </technique>
        </profile_COMMON>
      </effect>

      <effect id="effect_003">
        <profile_COMMON>
          <technique sid="common">
            <lambert>
              <diffuse><color>1.000000 0.549020 0.000000 1.000000</color></diffuse>
            </lambert>
          </technique>
        </profile_COMMON>
      </effect>

      <effect id="effect_004">
        <profile_COMMON>
          <technique sid="common">
            <lambert>
              <diffuse><color>0.039216 0.490196 0.709804 1.000000</color></diffuse>
            </lambert>
          </technique>
        </profile_COMMON>
      </effect>

      <effect id="effect_005">
        <profile_COMMON>
          <technique sid="common">
            <lambert>
              <diffuse><color>0.039216 0.490196 0.709804 1.000000</color></diffuse>
            </lambert>
          </technique>
        </profile_COMMON>
      </effect>

      <effect id="effect_006">
        <profile_COMMON>
          <technique sid="common">
            <lambert>
              <diffuse><color>1.000000 0.549020 0.000000 1.000000</color></diffuse>
            </lambert>
          </technique>
        </profile_COMMON>
      </effect>

      <effect id="effect_007">
        <profile_COMMON>
          <technique sid="common">
            <lambert>
              <diffuse><color>1.000000 0.549020 0.000000 1.000000</color></diffuse>
            </lambert>
          </technique>
        </profile_COMMON>
      </effect>

      <effect id="effect_008">
        <profile_COMMON>
          <technique sid="common">
            <lambert>
              <diffuse><color>1.000000 0.549020 0.000000 1.000000</color></diffuse>
            </lambert>
          </technique>
        </profile_COMMON>
      </effect>

      <effect id="effect_009">
        <profile_COMMON>
          <technique sid="common">
            <lambert>
              <diffuse><color>1.000000 0.549020 0.000000 1.000000</color></diffuse>
            </lambert>
          </technique>
        </profile_COMMON>
      </effect>

      <effect id="effect_010">
        <profile_COMMON>
          <technique sid="common">
            <lambert>
              <diffuse><color>1.000000 0.549020 0.000000 1.000000</color></diffuse>
            </lambert>
          </technique>
        </profile_COMMON>
      </effect>

      <effect id="effect_011">
        <profile_COMMON>
          <technique sid="common">
            <lambert>
              <diffuse><color>0.341176 0.839216 0.411765 1.000000</color></diffuse>
            </lambert>
          </technique>
        </profile_COMMON>
      </effect>

      <effect id="effect_012">
        <profile_COMMON>
          <technique sid="common">
            <lambert>
              <diffuse><color>0.341176 0.839216 0.411765 1.000000</color></diffuse>
            </lambert>
          </technique>
        </profile_COMMON>
      </effect>

      <effect id="effect_013">
        <profile_COMMON>
          <technique sid="common">
            <lambert>
              <diffuse><color>0.341176 0.839216 0.411765 1.000000</color></diffuse>
            </lambert>
          </technique>
        </profile_COMMON>
      </effect>

      <effect id="effect_014">
        <profile_COMMON>
          <technique sid="common">
            <lambert>
              <diffuse><color>0.341176 0.839216 0.411765 1.000000</color></diffuse>
            </lambert>
          </technique>
        </profile_COMMON>
      </effect>

      <effect id="effect_015">
        <profile_COMMON>
          <technique sid="common">
            <lambert>
              <diffuse><color>0.341176 0.839216 0.411765 1.000000</color></diffuse>
            </lambert>
          </technique>
        </profile_COMMON>
      </effect>
  </library_effects>
  <library_materials>
    <material id="mat_000" name="mat_000"><instance_effect url="#effect_000"/></material>
<material id="mat_001" name="mat_001"><instance_effect url="#effect_001"/></material>
<material id="mat_002" name="mat_002"><instance_effect url="#effect_002"/></material>
<material id="mat_003" name="mat_003"><instance_effect url="#effect_003"/></material>
<material id="mat_004" name="mat_004"><instance_effect url="#effect_004"/></material>
<material id="mat_005" name="mat_005"><instance_effect url="#effect_005"/></material>
<material id="mat_006" name="mat_006"><instance_effect url="#effect_006"/></material>
<material id="mat_007" name="mat_007"><instance_effect url="#effect_007"/></material>
<material id="mat_008" name="mat_008"><instance_effect url="#effect_008"/></material>
<material id="mat_009" name="mat_009"><instance_effect url="#effect_009"/></material>
<material id="mat_010" name="mat_010"><instance_effect url="#effect_010"/></material>
<material id="mat_011" name="mat_011"><instance_effect url="#effect_011"/></material>
<material id="mat_012" name="mat_012"><instance_effect url="#effect_012"/></material>
<material id="mat_013" name="mat_013"><instance_effect url="#effect_013"/></material>
<material id="mat_014" name="mat_014"><instance_effect url="#effect_014"/></material>
<material id="mat_015" name="mat_015"><instance_effect url="#effect_015"/></material>
  </library_materials>
  <library_geometries>

      <geometry id="geom_000" name="material_000">
        <mesh>
          <source id="geom_000_positions">
            <float_array id="geom_000_positions_array" count="564">-3.861588 0 -1.006394 -3.861588 0 6.493606 -3.861588 2 -1.006394 -3.861588 2 6.493606 -3.661588 0.2 -0.806394 -3.661588 0.2 6.293606 -3.661588 0.35 0.591098 -3.661588 0.35 1.091098 -3.661588 0.85 0.591098 -3.661588 0.85 1.091098 -3.661588 2 -0.806394 -3.661588 2 6.293606 -3.660588 0.35 0.591098 -3.660588 0.35 1.091098 -3.660588 0.85 0.591098 -3.660588 0.85 1.091098 -3.235118 0.2 0.441098 -3.235118 0.2 1.241098 -2.835119 0.2 -0.806394 -2.835119 0.2 0.441098 -2.835119 0.2 1.241098 -2.835119 0.2 6.293606 -2.810118 0.2 -0.806394 -2.810118 0.2 0.441098 -2.810118 0.2 1.241098 -2.810118 0.2 6.293606 -2.435118 0.2 0.441098 -2.435118 0.2 1.241098 -0.308958 0.2 2.431931 -0.308958 0.2 3.862179 -0.308958 2.2 2.431931 -0.308958 2.2 3.862179 -0.298958 0.2 2.441931 -0.298958 0.2 3.852179 -0.298958 2.2 2.441931 -0.298958 2.2 3.852179 1.181803 0.2 2.441931 1.181803 0.2 3.852179 1.181803 2.2 2.441931 1.181803 2.2 3.852179 1.191803 0.2 2.431931 1.191803 0.2 3.862179 1.191803 2.2 2.431931 1.191803 2.2 3.862179 3.191695 0.2 6.293252 3.191695 2 6.293252 3.192086 0.2 6.293606 3.192086 2 6.293606 3.245547 0.2 3.700304 3.245547 0.2 6.293252 3.245547 2 6.293252 3.245547 2.2 3.700304 3.245547 2.2 6.293252 3.255547 0.2 3.710365 3.255547 0.2 6.293252 3.255547 2 6.293252 3.255547 2.2 3.710365 3.255547 2.2 6.293252 3.385315 0.2 3.711154 3.385315 0.2 6.293252 3.385315 2 6.293252 3.385315 2.2 3.711154 3.385315 2.2 6.293252 3.395315 0.2 3.701215 3.395315 0.2 6.293252 3.395315 2 6.293252 3.395315 2.2 3.701215 3.395315 2.2 6.293252 3.638412 0 -8.506747 3.638412 0 -1.006394 3.638412 2 -8.506747 3.638412 2 -1.006394 3.66736 2 -0.816394 3.66736 2.2 -0.816394 3.674297 0.2 -0.806394 3.674297 2 -0.806394 3.698638 0.2 -0.806394 3.698638 2.2 -0.806394 3.710811 0 6.493252 3.710811 2 6.493252 3.711201 0 6.493606 3.711201 2 6.493606 3.830196 0.2 -0.800694 3.830196 2.2 -0.800694 3.838412 0.2 -8.306747 3.838412 0.2 -7.531215 3.838412 0.2 -7.506215 3.838412 0.2 -5.966673 3.838412 0.2 -5.956673 3.838412 0.2 -5.874869 3.838412 0.2 -5.864869 3.838412 0.2 -0.816394 3.838412 0.2 -0.806394 3.838412 2 -8.306747 3.838412 2 -5.966673 3.838412 2 -5.956673 3.838412 2 -5.874869 3.838412 2 -5.864869 3.838412 2 -0.816394 3.838412 2.2 -5.966673 3.838412 2.2 -5.956673 3.838412 2.2 -5.874869 3.838412 2.2 -5.864869 3.838412 2.2 -0.806394 3.843646 0.2 -0.816394 3.843646 2.2 -0.816394 4.90896 0.2 -4.70745 4.90896 0.2 -3.523995 4.90896 2.2 -4.70745 4.90896 2.2 -3.523995 4.91896 0.2 -4.69745 4.91896 0.2 -3.533995 4.91896 2.2 -4.69745 4.91896 2.2 -3.533995 5.971413 0.2 2.504815 5.971413 2.2 2.504815 5.976646 0.2 -4.69745 5.976646 0.2 -3.533995 5.976646 2.2 -4.69745 5.976646 2.2 -3.533995 5.981879 0.2 2.484815 5.981879 2.2 2.484815 5.986646 0.2 -4.70745 5.986646 0.2 -3.523995 5.986646 2.2 -4.70745 5.986646 2.2 -3.523995 6.109482 0.2 2.484815 6.109482 2.2 2.484815 6.147698 0.2 2.504815 6.147698 2.2 2.504815 6.918563 0.2 -0.987921 6.918563 0.2 -0.866239 6.918563 2.2 -0.987921 6.918563 2.2 -0.866239 6.928563 0.2 -0.977921 6.928563 0.2 -0.876239 6.928563 2.2 -0.977921 6.928563 2.2 -0.876239 7.235869 0.2 -5.956673 7.235869 0.2 -5.874869 7.235869 2.2 -5.956673 7.235869 2.2 -5.874869 7.245869 0.2 -5.966673 7.245869 0.2 -5.864869 7.245869 2.2 -5.966673 7.245869 2.2 -5.864869 7.672716 0.2 -7.931215 7.672716 0.2 -7.531215 7.672716 0.2 -7.506215 7.672716 0.2 -7.131215 8.010385 0.2 -3.738451 8.010385 0.2 -2.554996 8.010385 2.2 -3.738451 8.010385 2.2 -2.554996 8.020385 0.2 -3.728451 8.020385 0.2 -2.564996 8.020385 2.2 -3.728451 8.020385 2.2 -2.564996 8.472715 0.2 -7.931215 8.472715 0.2 -7.531215 8.472715 0.2 -7.506215 8.472715 0.2 -7.131215 9.183839 0.2 -3.728451 9.183839 0.2 -2.564996 9.183839 2.2 -3.728451 9.183839 2.2 -2.564996 9.193839 0.2 -3.738451 9.193839 0.2 -2.554996 9.193839 2.2 -3.738451 9.193839 2.2 -2.554996 10.824373 0.2 -0.987921 10.824373 0.2 -0.977921 10.824373 0.2 -0.876239 10.824373 0.2 -0.866239 10.824373 2.2 -0.987921 10.824373 2.2 -0.977921 10.824373 2.2 -0.876239 10.824373 2.2 -0.866239 10.938413 0.2 -8.306747 10.938413 0.2 -7.531215 10.938413 0.2 -7.506215 10.938413 0.2 6.293252 10.938413 2 -8.306747 10.938413 2 6.293252 11.138412 0 -8.506747 11.138412 0 6.493252 11.138412 2 -8.506747 11.138412 2 6.493252</float_array>
            <technique_common>
              <accessor source="#geom_000_positions_array" count="188" stride="3">
                <param name="X" type="float"/>
                <param name="Y" type="float"/>
                <param name="Z" type="float"/>
              </accessor>
            </technique_common>
          </source>
          <vertices id="geom_000_vertices">
            <input semantic="POSITION" source="#geom_000_positions"/>
          </vertices>
          <triangles count="342" material="mat_000">
            <input semantic="VERTEX" source="#geom_000_vertices" offset="0"/>
            <p>19 18 16 16 18 4 16 4 17 17 4 5 17 5 20 20 5 21 29 27 24 44 49 48 74 22 26 26 22 23 107 91 104 25 46 44 107 104 123 48 63 114 91 107 90 90 107 106 90 106 143 143 106 122 143 122 130 130 122 123 130 123 131 131 123 104 131 104 128 27 29 26 26 29 28 26 28 74 74 28 40 74 40 41 149 148 86 24 25 29 29 25 44 29 44 41 41 44 48 41 48 74 74 48 114 63 64 114 114 64 181 114 181 128 128 181 173 128 173 131 180 160 161 180 166 167 86 87 149 149 87 142 149 142 161 134 135 171 171 135 172 180 161 166 166 161 142 166 142 150 150 142 143 150 143 151 151 143 130 151 130 167 167 130 170 167 170 180 180 170 171 180 171 181 181 171 172 181 172 173 159 179 158 158 179 178 158 178 146 146 178 84 146 84 147 147 84 85 4 6 7 6 4 8 8 4 10 8 10 9 9 10 11 9 11 7 7 11 5 7 5 4 49 44 50 50 44 45 60 59 55 55 59 54 71 2 72 72 98 71 71 98 97 71 97 70 70 97 96 70 96 95 95 94 70 70 94 93 70 93 186 186 93 182 186 182 187 187 182 183 187 183 79 183 65 79 79 65 60 79 60 55 75 72 10 10 72 2 10 2 11 11 2 3 11 3 47 47 3 81 47 81 45 45 81 79 45 79 50 50 79 55 89 88 96 96 88 95 93 94 87 87 86 93 93 86 85 93 85 84 98 91 97 97 91 90 74 75 22 22 75 10 22 10 18 18 10 4 58 53 59 59 53 54 138 88 139 139 88 89 79 81 78 78 81 80 187 79 185 185 79 78 186 187 184 184 187 185 70 186 68 68 186 184 71 70 69 69 70 68 2 71 0 0 71 69 3 2 1 1 2 0 81 3 80 80 3 1 78 80 1 69 68 184 1 0 78 78 0 69 78 69 185 185 69 184 47 45 46 46 45 44 183 181 65 65 181 64 181 183 180 180 183 182 180 182 179 179 182 178 182 93 178 178 93 84 11 47 46 46 25 11 11 25 21 11 21 5 177 133 173 173 133 131 176 177 172 172 177 173 137 176 135 135 176 172 136 137 134 134 137 135 175 136 171 171 136 134 174 175 170 170 175 171 132 174 130 130 174 170 133 132 131 131 132 130 175 174 136 136 174 132 136 132 137 137 132 133 137 133 176 176 133 177 42 43 40 40 43 41 30 42 28 28 42 40 31 30 29 29 30 28 43 31 41 41 31 29 38 42 34 34 42 30 34 30 35 35 30 31 35 31 39 39 31 43 39 43 38 38 43 42 39 38 37 37 38 36 38 34 36 36 34 32 34 35 32 32 35 33 35 39 33 33 39 37 36 32 37 37 32 33 168 169 166 166 169 167 152 168 150 150 168 166 153 152 151 151 152 150 169 153 167 167 153 151 164 168 156 156 168 152 156 152 157 157 152 153 157 153 165 165 153 169 165 169 164 164 169 168 165 164 163 163 164 162 164 156 162 162 156 154 156 157 154 154 157 155 157 165 155 155 165 163 162 154 163 163 154 155 124 125 122 122 125 123 108 124 106 106 124 122 109 108 107 107 108 106 125 109 123 123 109 107 118 124 112 112 124 108 112 108 113 113 108 109 113 109 119 119 109 125 119 125 118 118 125 124 119 118 117 117 118 116 118 112 116 116 112 110 112 113 110 110 113 111 113 119 111 111 119 117 116 110 117 117 110 111 52 51 50 50 51 48 50 48 49 55 57 50 50 57 52 54 53 55 55 53 56 55 56 57 61 56 58 58 56 53 62 61 60 60 61 58 60 58 59 65 67 60 60 67 62 64 63 65 65 63 66 65 66 67 51 66 48 48 66 63 62 67 61 61 67 66 61 66 56 56 66 51 56 51 57 57 51 52 83 127 103 103 127 105 103 105 77 77 105 73 77 73 121 121 73 115 121 115 127 127 115 129 127 129 105 83 103 82 82 103 92 127 83 126 126 83 82 121 127 120 120 127 126 77 121 76 76 121 120 129 115 128 128 115 114 105 129 104 104 129 128 104 91 98 72 73 98 98 73 105 98 105 104 73 72 75 74 114 75 75 114 115 75 115 73 120 126 76 76 126 82 76 82 92 92 103 76 76 103 77 101 141 96 96 141 139 96 139 89 97 102 96 96 102 101 90 143 97 97 143 145 97 145 102 144 145 142 142 145 143 99 144 94 94 144 142 94 142 87 95 100 94 94 100 99 88 138 95 95 138 140 95 140 100 141 140 139 139 140 138 101 102 141 141 102 145 141 145 140 140 145 144 140 144 100 100 144 99</p>
          </triangles>
        </mesh>
      </geometry>

      <geometry id="geom_001" name="material_001">
        <mesh>
          <source id="geom_001_positions">
            <float_array id="geom_001_positions_array" count="564">-3.861588 0 -1.006394 -3.861588 0 6.493606 -3.861588 2 -1.006394 -3.861588 2 6.493606 -3.661588 0.2 -0.806394 -3.661588 0.2 6.293606 -3.661588 0.35 0.591098 -3.661588 0.35 1.091098 -3.661588 0.85 0.591098 -3.661588 0.85 1.091098 -3.661588 2 -0.806394 -3.661588 2 6.293606 -3.660588 0.35 0.591098 -3.660588 0.35 1.091098 -3.660588 0.85 0.591098 -3.660588 0.85 1.091098 -3.235118 0.2 0.441098 -3.235118 0.2 1.241098 -2.835119 0.2 -0.806394 -2.835119 0.2 0.441098 -2.835119 0.2 1.241098 -2.835119 0.2 6.293606 -2.810118 0.2 -0.806394 -2.810118 0.2 0.441098 -2.810118 0.2 1.241098 -2.810118 0.2 6.293606 -2.435118 0.2 0.441098 -2.435118 0.2 1.241098 -0.308958 0.2 2.431931 -0.308958 0.2 3.862179 -0.308958 2.2 2.431931 -0.308958 2.2 3.862179 -0.298958 0.2 2.441931 -0.298958 0.2 3.852179 -0.298958 2.2 2.441931 -0.298958 2.2 3.852179 1.181803 0.2 2.441931 1.181803 0.2 3.852179 1.181803 2.2 2.441931 1.181803 2.2 3.852179 1.191803 0.2 2.431931 1.191803 0.2 3.862179 1.191803 2.2 2.431931 1.191803 2.2 3.862179 3.191695 0.2 6.293252 3.191695 2 6.293252 3.192086 0.2 6.293606 3.192086 2 6.293606 3.245547 0.2 3.700304 3.245547 0.2 6.293252 3.245547 2 6.293252 3.245547 2.2 3.700304 3.245547 2.2 6.293252 3.255547 0.2 3.710365 3.255547 0.2 6.293252 3.255547 2 6.293252 3.255547 2.2 3.710365 3.255547 2.2 6.293252 3.385315 0.2 3.711154 3.385315 0.2 6.293252 3.385315 2 6.293252 3.385315 2.2 3.711154 3.385315 2.2 6.293252 3.395315 0.2 3.701215 3.395315 0.2 6.293252 3.395315 2 6.293252 3.395315 2.2 3.701215 3.395315 2.2 6.293252 3.638412 0 -8.506747 3.638412 0 -1.006394 3.638412 2 -8.506747 3.638412 2 -1.006394 3.66736 2 -0.816394 3.66736 2.2 -0.816394 3.674297 0.2 -0.806394 3.674297 2 -0.806394 3.698638 0.2 -0.806394 3.698638 2.2 -0.806394 3.710811 0 6.493252 3.710811 2 6.493252 3.711201 0 6.493606 3.711201 2 6.493606 3.830196 0.2 -0.800694 3.830196 2.2 -0.800694 3.838412 0.2 -8.306747 3.838412 0.2 -7.531215 3.838412 0.2 -7.506215 3.838412 0.2 -5.966673 3.838412 0.2 -5.956673 3.838412 0.2 -5.874869 3.838412 0.2 -5.864869 3.838412 0.2 -0.816394 3.838412 0.2 -0.806394 3.838412 2 -8.306747 3.838412 2 -5.966673 3.838412 2 -5.956673 3.838412 2 -5.874869 3.838412 2 -5.864869 3.838412 2 -0.816394 3.838412 2.2 -5.966673 3.838412 2.2 -5.956673 3.838412 2.2 -5.874869 3.838412 2.2 -5.864869 3.838412 2.2 -0.806394 3.843646 0.2 -0.816394 3.843646 2.2 -0.816394 4.90896 0.2 -4.70745 4.90896 0.2 -3.523995 4.90896 2.2 -4.70745 4.90896 2.2 -3.523995 4.91896 0.2 -4.69745 4.91896 0.2 -3.533995 4.91896 2.2 -4.69745 4.91896 2.2 -3.533995 5.971413 0.2 2.504815 5.971413 2.2 2.504815 5.976646 0.2 -4.69745 5.976646 0.2 -3.533995 5.976646 2.2 -4.69745 5.976646 2.2 -3.533995 5.981879 0.2 2.484815 5.981879 2.2 2.484815 5.986646 0.2 -4.70745 5.986646 0.2 -3.523995 5.986646 2.2 -4.70745 5.986646 2.2 -3.523995 6.109482 0.2 2.484815 6.109482 2.2 2.484815 6.147698 0.2 2.504815 6.147698 2.2 2.504815 6.918563 0.2 -0.987921 6.918563 0.2 -0.866239 6.918563 2.2 -0.987921 6.918563 2.2 -0.866239 6.928563 0.2 -0.977921 6.928563 0.2 -0.876239 6.928563 2.2 -0.977921 6.928563 2.2 -0.876239 7.235869 0.2 -5.956673 7.235869 0.2 -5.874869 7.235869 2.2 -5.956673 7.235869 2.2 -5.874869 7.245869 0.2 -5.966673 7.245869 0.2 -5.864869 7.245869 2.2 -5.966673 7.245869 2.2 -5.864869 7.672716 0.2 -7.931215 7.672716 0.2 -7.531215 7.672716 0.2 -7.506215 7.672716 0.2 -7.131215 8.010385 0.2 -3.738451 8.010385 0.2 -2.554996 8.010385 2.2 -3.738451 8.010385 2.2 -2.554996 8.020385 0.2 -3.728451 8.020385 0.2 -2.564996 8.020385 2.2 -3.728451 8.020385 2.2 -2.564996 8.472715 0.2 -7.931215 8.472715 0.2 -7.531215 8.472715 0.2 -7.506215 8.472715 0.2 -7.131215 9.183839 0.2 -3.728451 9.183839 0.2 -2.564996 9.183839 2.2 -3.728451 9.183839 2.2 -2.564996 9.193839 0.2 -3.738451 9.193839 0.2 -2.554996 9.193839 2.2 -3.738451 9.193839 2.2 -2.554996 10.824373 0.2 -0.987921 10.824373 0.2 -0.977921 10.824373 0.2 -0.876239 10.824373 0.2 -0.866239 10.824373 2.2 -0.987921 10.824373 2.2 -0.977921 10.824373 2.2 -0.876239 10.824373 2.2 -0.866239 10.938413 0.2 -8.306747 10.938413 0.2 -7.531215 10.938413 0.2 -7.506215 10.938413 0.2 6.293252 10.938413 2 -8.306747 10.938413 2 6.293252 11.138412 0 -8.506747 11.138412 0 6.493252 11.138412 2 -8.506747 11.138412 2 6.493252</float_array>
            <technique_common>
              <accessor source="#geom_001_positions_array" count="188" stride="3">
                <param name="X" type="float"/>
                <param name="Y" type="float"/>
                <param name="Z" type="float"/>
              </accessor>
            </technique_common>
          </source>
          <vertices id="geom_001_vertices">
            <input semantic="POSITION" source="#geom_001_positions"/>
          </vertices>
          <triangles count="2" material="mat_001">
            <input semantic="VERTEX" source="#geom_001_vertices" offset="0"/>
            <p>148 147 86 86 147 85</p>
          </triangles>
        </mesh>
      </geometry>

      <geometry id="geom_002" name="material_002">
        <mesh>
          <source id="geom_002_positions">
            <float_array id="geom_002_positions_array" count="564">-3.861588 0 -1.006394 -3.861588 0 6.493606 -3.861588 2 -1.006394 -3.861588 2 6.493606 -3.661588 0.2 -0.806394 -3.661588 0.2 6.293606 -3.661588 0.35 0.591098 -3.661588 0.35 1.091098 -3.661588 0.85 0.591098 -3.661588 0.85 1.091098 -3.661588 2 -0.806394 -3.661588 2 6.293606 -3.660588 0.35 0.591098 -3.660588 0.35 1.091098 -3.660588 0.85 0.591098 -3.660588 0.85 1.091098 -3.235118 0.2 0.441098 -3.235118 0.2 1.241098 -2.835119 0.2 -0.806394 -2.835119 0.2 0.441098 -2.835119 0.2 1.241098 -2.835119 0.2 6.293606 -2.810118 0.2 -0.806394 -2.810118 0.2 0.441098 -2.810118 0.2 1.241098 -2.810118 0.2 6.293606 -2.435118 0.2 0.441098 -2.435118 0.2 1.241098 -0.308958 0.2 2.431931 -0.308958 0.2 3.862179 -0.308958 2.2 2.431931 -0.308958 2.2 3.862179 -0.298958 0.2 2.441931 -0.298958 0.2 3.852179 -0.298958 2.2 2.441931 -0.298958 2.2 3.852179 1.181803 0.2 2.441931 1.181803 0.2 3.852179 1.181803 2.2 2.441931 1.181803 2.2 3.852179 1.191803 0.2 2.431931 1.191803 0.2 3.862179 1.191803 2.2 2.431931 1.191803 2.2 3.862179 3.191695 0.2 6.293252 3.191695 2 6.293252 3.192086 0.2 6.293606 3.192086 2 6.293606 3.245547 0.2 3.700304 3.245547 0.2 6.293252 3.245547 2 6.293252 3.245547 2.2 3.700304 3.245547 2.2 6.293252 3.255547 0.2 3.710365 3.255547 0.2 6.293252 3.255547 2 6.293252 3.255547 2.2 3.710365 3.255547 2.2 6.293252 3.385315 0.2 3.711154 3.385315 0.2 6.293252 3.385315 2 6.293252 3.385315 2.2 3.711154 3.385315 2.2 6.293252 3.395315 0.2 3.701215 3.395315 0.2 6.293252 3.395315 2 6.293252 3.395315 2.2 3.701215 3.395315 2.2 6.293252 3.638412 0 -8.506747 3.638412 0 -1.006394 3.638412 2 -8.506747 3.638412 2 -1.006394 3.66736 2 -0.816394 3.66736 2.2 -0.816394 3.674297 0.2 -0.806394 3.674297 2 -0.806394 3.698638 0.2 -0.806394 3.698638 2.2 -0.806394 3.710811 0 6.493252 3.710811 2 6.493252 3.711201 0 6.493606 3.711201 2 6.493606 3.830196 0.2 -0.800694 3.830196 2.2 -0.800694 3.838412 0.2 -8.306747 3.838412 0.2 -7.531215 3.838412 0.2 -7.506215 3.838412 0.2 -5.966673 3.838412 0.2 -5.956673 3.838412 0.2 -5.874869 3.838412 0.2 -5.864869 3.838412 0.2 -0.816394 3.838412 0.2 -0.806394 3.838412 2 -8.306747 3.838412 2 -5.966673 3.838412 2 -5.956673 3.838412 2 -5.874869 3.838412 2 -5.864869 3.838412 2 -0.816394 3.838412 2.2 -5.966673 3.838412 2.2 -5.956673 3.838412 2.2 -5.874869 3.838412 2.2 -5.864869 3.838412 2.2 -0.806394 3.843646 0.2 -0.816394 3.843646 2.2 -0.816394 4.90896 0.2 -4.70745 4.90896 0.2 -3.523995 4.90896 2.2 -4.70745 4.90896 2.2 -3.523995 4.91896 0.2 -4.69745 4.91896 0.2 -3.533995 4.91896 2.2 -4.69745 4.91896 2.2 -3.533995 5.971413 0.2 2.504815 5.971413 2.2 2.504815 5.976646 0.2 -4.69745 5.976646 0.2 -3.533995 5.976646 2.2 -4.69745 5.976646 2.2 -3.533995 5.981879 0.2 2.484815 5.981879 2.2 2.484815 5.986646 0.2 -4.70745 5.986646 0.2 -3.523995 5.986646 2.2 -4.70745 5.986646 2.2 -3.523995 6.109482 0.2 2.484815 6.109482 2.2 2.484815 6.147698 0.2 2.504815 6.147698 2.2 2.504815 6.918563 0.2 -0.987921 6.918563 0.2 -0.866239 6.918563 2.2 -0.987921 6.918563 2.2 -0.866239 6.928563 0.2 -0.977921 6.928563 0.2 -0.876239 6.928563 2.2 -0.977921 6.928563 2.2 -0.876239 7.235869 0.2 -5.956673 7.235869 0.2 -5.874869 7.235869 2.2 -5.956673 7.235869 2.2 -5.874869 7.245869 0.2 -5.966673 7.245869 0.2 -5.864869 7.245869 2.2 -5.966673 7.245869 2.2 -5.864869 7.672716 0.2 -7.931215 7.672716 0.2 -7.531215 7.672716 0.2 -7.506215 7.672716 0.2 -7.131215 8.010385 0.2 -3.738451 8.010385 0.2 -2.554996 8.010385 2.2 -3.738451 8.010385 2.2 -2.554996 8.020385 0.2 -3.728451 8.020385 0.2 -2.564996 8.020385 2.2 -3.728451 8.020385 2.2 -2.564996 8.472715 0.2 -7.931215 8.472715 0.2 -7.531215 8.472715 0.2 -7.506215 8.472715 0.2 -7.131215 9.183839 0.2 -3.728451 9.183839 0.2 -2.564996 9.183839 2.2 -3.728451 9.183839 2.2 -2.564996 9.193839 0.2 -3.738451 9.193839 0.2 -2.554996 9.193839 2.2 -3.738451 9.193839 2.2 -2.554996 10.824373 0.2 -0.987921 10.824373 0.2 -0.977921 10.824373 0.2 -0.876239 10.824373 0.2 -0.866239 10.824373 2.2 -0.987921 10.824373 2.2 -0.977921 10.824373 2.2 -0.876239 10.824373 2.2 -0.866239 10.938413 0.2 -8.306747 10.938413 0.2 -7.531215 10.938413 0.2 -7.506215 10.938413 0.2 6.293252 10.938413 2 -8.306747 10.938413 2 6.293252 11.138412 0 -8.506747 11.138412 0 6.493252 11.138412 2 -8.506747 11.138412 2 6.493252</float_array>
            <technique_common>
              <accessor source="#geom_002_positions_array" count="188" stride="3">
                <param name="X" type="float"/>
                <param name="Y" type="float"/>
                <param name="Z" type="float"/>
              </accessor>
            </technique_common>
          </source>
          <vertices id="geom_002_vertices">
            <input semantic="POSITION" source="#geom_002_positions"/>
          </vertices>
          <triangles count="2" material="mat_002">
            <input semantic="VERTEX" source="#geom_002_vertices" offset="0"/>
            <p>180 179 160 160 179 159</p>
          </triangles>
        </mesh>
      </geometry>

      <geometry id="geom_003" name="material_003">
        <mesh>
          <source id="geom_003_positions">
            <float_array id="geom_003_positions_array" count="564">-3.861588 0 -1.006394 -3.861588 0 6.493606 -3.861588 2 -1.006394 -3.861588 2 6.493606 -3.661588 0.2 -0.806394 -3.661588 0.2 6.293606 -3.661588 0.35 0.591098 -3.661588 0.35 1.091098 -3.661588 0.85 0.591098 -3.661588 0.85 1.091098 -3.661588 2 -0.806394 -3.661588 2 6.293606 -3.660588 0.35 0.591098 -3.660588 0.35 1.091098 -3.660588 0.85 0.591098 -3.660588 0.85 1.091098 -3.235118 0.2 0.441098 -3.235118 0.2 1.241098 -2.835119 0.2 -0.806394 -2.835119 0.2 0.441098 -2.835119 0.2 1.241098 -2.835119 0.2 6.293606 -2.810118 0.2 -0.806394 -2.810118 0.2 0.441098 -2.810118 0.2 1.241098 -2.810118 0.2 6.293606 -2.435118 0.2 0.441098 -2.435118 0.2 1.241098 -0.308958 0.2 2.431931 -0.308958 0.2 3.862179 -0.308958 2.2 2.431931 -0.308958 2.2 3.862179 -0.298958 0.2 2.441931 -0.298958 0.2 3.852179 -0.298958 2.2 2.441931 -0.298958 2.2 3.852179 1.181803 0.2 2.441931 1.181803 0.2 3.852179 1.181803 2.2 2.441931 1.181803 2.2 3.852179 1.191803 0.2 2.431931 1.191803 0.2 3.862179 1.191803 2.2 2.431931 1.191803 2.2 3.862179 3.191695 0.2 6.293252 3.191695 2 6.293252 3.192086 0.2 6.293606 3.192086 2 6.293606 3.245547 0.2 3.700304 3.245547 0.2 6.293252 3.245547 2 6.293252 3.245547 2.2 3.700304 3.245547 2.2 6.293252 3.255547 0.2 3.710365 3.255547 0.2 6.293252 3.255547 2 6.293252 3.255547 2.2 3.710365 3.255547 2.2 6.293252 3.385315 0.2 3.711154 3.385315 0.2 6.293252 3.385315 2 6.293252 3.385315 2.2 3.711154 3.385315 2.2 6.293252 3.395315 0.2 3.701215 3.395315 0.2 6.293252 3.395315 2 6.293252 3.395315 2.2 3.701215 3.395315 2.2 6.293252 3.638412 0 -8.506747 3.638412 0 -1.006394 3.638412 2 -8.506747 3.638412 2 -1.006394 3.66736 2 -0.816394 3.66736 2.2 -0.816394 3.674297 0.2 -0.806394 3.674297 2 -0.806394 3.698638 0.2 -0.806394 3.698638 2.2 -0.806394 3.710811 0 6.493252 3.710811 2 6.493252 3.711201 0 6.493606 3.711201 2 6.493606 3.830196 0.2 -0.800694 3.830196 2.2 -0.800694 3.838412 0.2 -8.306747 3.838412 0.2 -7.531215 3.838412 0.2 -7.506215 3.838412 0.2 -5.966673 3.838412 0.2 -5.956673 3.838412 0.2 -5.874869 3.838412 0.2 -5.864869 3.838412 0.2 -0.816394 3.838412 0.2 -0.806394 3.838412 2 -8.306747 3.838412 2 -5.966673 3.838412 2 -5.956673 3.838412 2 -5.874869 3.838412 2 -5.864869 3.838412 2 -0.816394 3.838412 2.2 -5.966673 3.838412 2.2 -5.956673 3.838412 2.2 -5.874869 3.838412 2.2 -5.864869 3.838412 2.2 -0.806394 3.843646 0.2 -0.816394 3.843646 2.2 -0.816394 4.90896 0.2 -4.70745 4.90896 0.2 -3.523995 4.90896 2.2 -4.70745 4.90896 2.2 -3.523995 4.91896 0.2 -4.69745 4.91896 0.2 -3.533995 4.91896 2.2 -4.69745 4.91896 2.2 -3.533995 5.971413 0.2 2.504815 5.971413 2.2 2.504815 5.976646 0.2 -4.69745 5.976646 0.2 -3.533995 5.976646 2.2 -4.69745 5.976646 2.2 -3.533995 5.981879 0.2 2.484815 5.981879 2.2 2.484815 5.986646 0.2 -4.70745 5.986646 0.2 -3.523995 5.986646 2.2 -4.70745 5.986646 2.2 -3.523995 6.109482 0.2 2.484815 6.109482 2.2 2.484815 6.147698 0.2 2.504815 6.147698 2.2 2.504815 6.918563 0.2 -0.987921 6.918563 0.2 -0.866239 6.918563 2.2 -0.987921 6.918563 2.2 -0.866239 6.928563 0.2 -0.977921 6.928563 0.2 -0.876239 6.928563 2.2 -0.977921 6.928563 2.2 -0.876239 7.235869 0.2 -5.956673 7.235869 0.2 -5.874869 7.235869 2.2 -5.956673 7.235869 2.2 -5.874869 7.245869 0.2 -5.966673 7.245869 0.2 -5.864869 7.245869 2.2 -5.966673 7.245869 2.2 -5.864869 7.672716 0.2 -7.931215 7.672716 0.2 -7.531215 7.672716 0.2 -7.506215 7.672716 0.2 -7.131215 8.010385 0.2 -3.738451 8.010385 0.2 -2.554996 8.010385 2.2 -3.738451 8.010385 2.2 -2.554996 8.020385 0.2 -3.728451 8.020385 0.2 -2.564996 8.020385 2.2 -3.728451 8.020385 2.2 -2.564996 8.472715 0.2 -7.931215 8.472715 0.2 -7.531215 8.472715 0.2 -7.506215 8.472715 0.2 -7.131215 9.183839 0.2 -3.728451 9.183839 0.2 -2.564996 9.183839 2.2 -3.728451 9.183839 2.2 -2.564996 9.193839 0.2 -3.738451 9.193839 0.2 -2.554996 9.193839 2.2 -3.738451 9.193839 2.2 -2.554996 10.824373 0.2 -0.987921 10.824373 0.2 -0.977921 10.824373 0.2 -0.876239 10.824373 0.2 -0.866239 10.824373 2.2 -0.987921 10.824373 2.2 -0.977921 10.824373 2.2 -0.876239 10.824373 2.2 -0.866239 10.938413 0.2 -8.306747 10.938413 0.2 -7.531215 10.938413 0.2 -7.506215 10.938413 0.2 6.293252 10.938413 2 -8.306747 10.938413 2 6.293252 11.138412 0 -8.506747 11.138412 0 6.493252 11.138412 2 -8.506747 11.138412 2 6.493252</float_array>
            <technique_common>
              <accessor source="#geom_003_positions_array" count="188" stride="3">
                <param name="X" type="float"/>
                <param name="Y" type="float"/>
                <param name="Z" type="float"/>
              </accessor>
            </technique_common>
          </source>
          <vertices id="geom_003_vertices">
            <input semantic="POSITION" source="#geom_003_positions"/>
          </vertices>
          <triangles count="2" material="mat_003">
            <input semantic="VERTEX" source="#geom_003_vertices" offset="0"/>
            <p>160 159 148 148 159 147</p>
          </triangles>
        </mesh>
      </geometry>

      <geometry id="geom_004" name="material_004">
        <mesh>
          <source id="geom_004_positions">
            <float_array id="geom_004_positions_array" count="564">-3.861588 0 -1.006394 -3.861588 0 6.493606 -3.861588 2 -1.006394 -3.861588 2 6.493606 -3.661588 0.2 -0.806394 -3.661588 0.2 6.293606 -3.661588 0.35 0.591098 -3.661588 0.35 1.091098 -3.661588 0.85 0.591098 -3.661588 0.85 1.091098 -3.661588 2 -0.806394 -3.661588 2 6.293606 -3.660588 0.35 0.591098 -3.660588 0.35 1.091098 -3.660588 0.85 0.591098 -3.660588 0.85 1.091098 -3.235118 0.2 0.441098 -3.235118 0.2 1.241098 -2.835119 0.2 -0.806394 -2.835119 0.2 0.441098 -2.835119 0.2 1.241098 -2.835119 0.2 6.293606 -2.810118 0.2 -0.806394 -2.810118 0.2 0.441098 -2.810118 0.2 1.241098 -2.810118 0.2 6.293606 -2.435118 0.2 0.441098 -2.435118 0.2 1.241098 -0.308958 0.2 2.431931 -0.308958 0.2 3.862179 -0.308958 2.2 2.431931 -0.308958 2.2 3.862179 -0.298958 0.2 2.441931 -0.298958 0.2 3.852179 -0.298958 2.2 2.441931 -0.298958 2.2 3.852179 1.181803 0.2 2.441931 1.181803 0.2 3.852179 1.181803 2.2 2.441931 1.181803 2.2 3.852179 1.191803 0.2 2.431931 1.191803 0.2 3.862179 1.191803 2.2 2.431931 1.191803 2.2 3.862179 3.191695 0.2 6.293252 3.191695 2 6.293252 3.192086 0.2 6.293606 3.192086 2 6.293606 3.245547 0.2 3.700304 3.245547 0.2 6.293252 3.245547 2 6.293252 3.245547 2.2 3.700304 3.245547 2.2 6.293252 3.255547 0.2 3.710365 3.255547 0.2 6.293252 3.255547 2 6.293252 3.255547 2.2 3.710365 3.255547 2.2 6.293252 3.385315 0.2 3.711154 3.385315 0.2 6.293252 3.385315 2 6.293252 3.385315 2.2 3.711154 3.385315 2.2 6.293252 3.395315 0.2 3.701215 3.395315 0.2 6.293252 3.395315 2 6.293252 3.395315 2.2 3.701215 3.395315 2.2 6.293252 3.638412 0 -8.506747 3.638412 0 -1.006394 3.638412 2 -8.506747 3.638412 2 -1.006394 3.66736 2 -0.816394 3.66736 2.2 -0.816394 3.674297 0.2 -0.806394 3.674297 2 -0.806394 3.698638 0.2 -0.806394 3.698638 2.2 -0.806394 3.710811 0 6.493252 3.710811 2 6.493252 3.711201 0 6.493606 3.711201 2 6.493606 3.830196 0.2 -0.800694 3.830196 2.2 -0.800694 3.838412 0.2 -8.306747 3.838412 0.2 -7.531215 3.838412 0.2 -7.506215 3.838412 0.2 -5.966673 3.838412 0.2 -5.956673 3.838412 0.2 -5.874869 3.838412 0.2 -5.864869 3.838412 0.2 -0.816394 3.838412 0.2 -0.806394 3.838412 2 -8.306747 3.838412 2 -5.966673 3.838412 2 -5.956673 3.838412 2 -5.874869 3.838412 2 -5.864869 3.838412 2 -0.816394 3.838412 2.2 -5.966673 3.838412 2.2 -5.956673 3.838412 2.2 -5.874869 3.838412 2.2 -5.864869 3.838412 2.2 -0.806394 3.843646 0.2 -0.816394 3.843646 2.2 -0.816394 4.90896 0.2 -4.70745 4.90896 0.2 -3.523995 4.90896 2.2 -4.70745 4.90896 2.2 -3.523995 4.91896 0.2 -4.69745 4.91896 0.2 -3.533995 4.91896 2.2 -4.69745 4.91896 2.2 -3.533995 5.971413 0.2 2.504815 5.971413 2.2 2.504815 5.976646 0.2 -4.69745 5.976646 0.2 -3.533995 5.976646 2.2 -4.69745 5.976646 2.2 -3.533995 5.981879 0.2 2.484815 5.981879 2.2 2.484815 5.986646 0.2 -4.70745 5.986646 0.2 -3.523995 5.986646 2.2 -4.70745 5.986646 2.2 -3.523995 6.109482 0.2 2.484815 6.109482 2.2 2.484815 6.147698 0.2 2.504815 6.147698 2.2 2.504815 6.918563 0.2 -0.987921 6.918563 0.2 -0.866239 6.918563 2.2 -0.987921 6.918563 2.2 -0.866239 6.928563 0.2 -0.977921 6.928563 0.2 -0.876239 6.928563 2.2 -0.977921 6.928563 2.2 -0.876239 7.235869 0.2 -5.956673 7.235869 0.2 -5.874869 7.235869 2.2 -5.956673 7.235869 2.2 -5.874869 7.245869 0.2 -5.966673 7.245869 0.2 -5.864869 7.245869 2.2 -5.966673 7.245869 2.2 -5.864869 7.672716 0.2 -7.931215 7.672716 0.2 -7.531215 7.672716 0.2 -7.506215 7.672716 0.2 -7.131215 8.010385 0.2 -3.738451 8.010385 0.2 -2.554996 8.010385 2.2 -3.738451 8.010385 2.2 -2.554996 8.020385 0.2 -3.728451 8.020385 0.2 -2.564996 8.020385 2.2 -3.728451 8.020385 2.2 -2.564996 8.472715 0.2 -7.931215 8.472715 0.2 -7.531215 8.472715 0.2 -7.506215 8.472715 0.2 -7.131215 9.183839 0.2 -3.728451 9.183839 0.2 -2.564996 9.183839 2.2 -3.728451 9.183839 2.2 -2.564996 9.193839 0.2 -3.738451 9.193839 0.2 -2.554996 9.193839 2.2 -3.738451 9.193839 2.2 -2.554996 10.824373 0.2 -0.987921 10.824373 0.2 -0.977921 10.824373 0.2 -0.876239 10.824373 0.2 -0.866239 10.824373 2.2 -0.987921 10.824373 2.2 -0.977921 10.824373 2.2 -0.876239 10.824373 2.2 -0.866239 10.938413 0.2 -8.306747 10.938413 0.2 -7.531215 10.938413 0.2 -7.506215 10.938413 0.2 6.293252 10.938413 2 -8.306747 10.938413 2 6.293252 11.138412 0 -8.506747 11.138412 0 6.493252 11.138412 2 -8.506747 11.138412 2 6.493252</float_array>
            <technique_common>
              <accessor source="#geom_004_positions_array" count="188" stride="3">
                <param name="X" type="float"/>
                <param name="Y" type="float"/>
                <param name="Z" type="float"/>
              </accessor>
            </technique_common>
          </source>
          <vertices id="geom_004_vertices">
            <input semantic="POSITION" source="#geom_004_positions"/>
          </vertices>
          <triangles count="2" material="mat_004">
            <input semantic="VERTEX" source="#geom_004_vertices" offset="0"/>
            <p>24 20 25 25 20 21</p>
          </triangles>
        </mesh>
      </geometry>

      <geometry id="geom_005" name="material_005">
        <mesh>
          <source id="geom_005_positions">
            <float_array id="geom_005_positions_array" count="564">-3.861588 0 -1.006394 -3.861588 0 6.493606 -3.861588 2 -1.006394 -3.861588 2 6.493606 -3.661588 0.2 -0.806394 -3.661588 0.2 6.293606 -3.661588 0.35 0.591098 -3.661588 0.35 1.091098 -3.661588 0.85 0.591098 -3.661588 0.85 1.091098 -3.661588 2 -0.806394 -3.661588 2 6.293606 -3.660588 0.35 0.591098 -3.660588 0.35 1.091098 -3.660588 0.85 0.591098 -3.660588 0.85 1.091098 -3.235118 0.2 0.441098 -3.235118 0.2 1.241098 -2.835119 0.2 -0.806394 -2.835119 0.2 0.441098 -2.835119 0.2 1.241098 -2.835119 0.2 6.293606 -2.810118 0.2 -0.806394 -2.810118 0.2 0.441098 -2.810118 0.2 1.241098 -2.810118 0.2 6.293606 -2.435118 0.2 0.441098 -2.435118 0.2 1.241098 -0.308958 0.2 2.431931 -0.308958 0.2 3.862179 -0.308958 2.2 2.431931 -0.308958 2.2 3.862179 -0.298958 0.2 2.441931 -0.298958 0.2 3.852179 -0.298958 2.2 2.441931 -0.298958 2.2 3.852179 1.181803 0.2 2.441931 1.181803 0.2 3.852179 1.181803 2.2 2.441931 1.181803 2.2 3.852179 1.191803 0.2 2.431931 1.191803 0.2 3.862179 1.191803 2.2 2.431931 1.191803 2.2 3.862179 3.191695 0.2 6.293252 3.191695 2 6.293252 3.192086 0.2 6.293606 3.192086 2 6.293606 3.245547 0.2 3.700304 3.245547 0.2 6.293252 3.245547 2 6.293252 3.245547 2.2 3.700304 3.245547 2.2 6.293252 3.255547 0.2 3.710365 3.255547 0.2 6.293252 3.255547 2 6.293252 3.255547 2.2 3.710365 3.255547 2.2 6.293252 3.385315 0.2 3.711154 3.385315 0.2 6.293252 3.385315 2 6.293252 3.385315 2.2 3.711154 3.385315 2.2 6.293252 3.395315 0.2 3.701215 3.395315 0.2 6.293252 3.395315 2 6.293252 3.395315 2.2 3.701215 3.395315 2.2 6.293252 3.638412 0 -8.506747 3.638412 0 -1.006394 3.638412 2 -8.506747 3.638412 2 -1.006394 3.66736 2 -0.816394 3.66736 2.2 -0.816394 3.674297 0.2 -0.806394 3.674297 2 -0.806394 3.698638 0.2 -0.806394 3.698638 2.2 -0.806394 3.710811 0 6.493252 3.710811 2 6.493252 3.711201 0 6.493606 3.711201 2 6.493606 3.830196 0.2 -0.800694 3.830196 2.2 -0.800694 3.838412 0.2 -8.306747 3.838412 0.2 -7.531215 3.838412 0.2 -7.506215 3.838412 0.2 -5.966673 3.838412 0.2 -5.956673 3.838412 0.2 -5.874869 3.838412 0.2 -5.864869 3.838412 0.2 -0.816394 3.838412 0.2 -0.806394 3.838412 2 -8.306747 3.838412 2 -5.966673 3.838412 2 -5.956673 3.838412 2 -5.874869 3.838412 2 -5.864869 3.838412 2 -0.816394 3.838412 2.2 -5.966673 3.838412 2.2 -5.956673 3.838412 2.2 -5.874869 3.838412 2.2 -5.864869 3.838412 2.2 -0.806394 3.843646 0.2 -0.816394 3.843646 2.2 -0.816394 4.90896 0.2 -4.70745 4.90896 0.2 -3.523995 4.90896 2.2 -4.70745 4.90896 2.2 -3.523995 4.91896 0.2 -4.69745 4.91896 0.2 -3.533995 4.91896 2.2 -4.69745 4.91896 2.2 -3.533995 5.971413 0.2 2.504815 5.971413 2.2 2.504815 5.976646 0.2 -4.69745 5.976646 0.2 -3.533995 5.976646 2.2 -4.69745 5.976646 2.2 -3.533995 5.981879 0.2 2.484815 5.981879 2.2 2.484815 5.986646 0.2 -4.70745 5.986646 0.2 -3.523995 5.986646 2.2 -4.70745 5.986646 2.2 -3.523995 6.109482 0.2 2.484815 6.109482 2.2 2.484815 6.147698 0.2 2.504815 6.147698 2.2 2.504815 6.918563 0.2 -0.987921 6.918563 0.2 -0.866239 6.918563 2.2 -0.987921 6.918563 2.2 -0.866239 6.928563 0.2 -0.977921 6.928563 0.2 -0.876239 6.928563 2.2 -0.977921 6.928563 2.2 -0.876239 7.235869 0.2 -5.956673 7.235869 0.2 -5.874869 7.235869 2.2 -5.956673 7.235869 2.2 -5.874869 7.245869 0.2 -5.966673 7.245869 0.2 -5.864869 7.245869 2.2 -5.966673 7.245869 2.2 -5.864869 7.672716 0.2 -7.931215 7.672716 0.2 -7.531215 7.672716 0.2 -7.506215 7.672716 0.2 -7.131215 8.010385 0.2 -3.738451 8.010385 0.2 -2.554996 8.010385 2.2 -3.738451 8.010385 2.2 -2.554996 8.020385 0.2 -3.728451 8.020385 0.2 -2.564996 8.020385 2.2 -3.728451 8.020385 2.2 -2.564996 8.472715 0.2 -7.931215 8.472715 0.2 -7.531215 8.472715 0.2 -7.506215 8.472715 0.2 -7.131215 9.183839 0.2 -3.728451 9.183839 0.2 -2.564996 9.183839 2.2 -3.728451 9.183839 2.2 -2.564996 9.193839 0.2 -3.738451 9.193839 0.2 -2.554996 9.193839 2.2 -3.738451 9.193839 2.2 -2.554996 10.824373 0.2 -0.987921 10.824373 0.2 -0.977921 10.824373 0.2 -0.876239 10.824373 0.2 -0.866239 10.824373 2.2 -0.987921 10.824373 2.2 -0.977921 10.824373 2.2 -0.876239 10.824373 2.2 -0.866239 10.938413 0.2 -8.306747 10.938413 0.2 -7.531215 10.938413 0.2 -7.506215 10.938413 0.2 6.293252 10.938413 2 -8.306747 10.938413 2 6.293252 11.138412 0 -8.506747 11.138412 0 6.493252 11.138412 2 -8.506747 11.138412 2 6.493252</float_array>
            <technique_common>
              <accessor source="#geom_005_positions_array" count="188" stride="3">
                <param name="X" type="float"/>
                <param name="Y" type="float"/>
                <param name="Z" type="float"/>
              </accessor>
            </technique_common>
          </source>
          <vertices id="geom_005_vertices">
            <input semantic="POSITION" source="#geom_005_positions"/>
          </vertices>
          <triangles count="2" material="mat_005">
            <input semantic="VERTEX" source="#geom_005_vertices" offset="0"/>
            <p>22 18 23 23 18 19</p>
          </triangles>
        </mesh>
      </geometry>

      <geometry id="geom_006" name="material_006">
        <mesh>
          <source id="geom_006_positions">
            <float_array id="geom_006_positions_array" count="564">-3.861588 0 -1.006394 -3.861588 0 6.493606 -3.861588 2 -1.006394 -3.861588 2 6.493606 -3.661588 0.2 -0.806394 -3.661588 0.2 6.293606 -3.661588 0.35 0.591098 -3.661588 0.35 1.091098 -3.661588 0.85 0.591098 -3.661588 0.85 1.091098 -3.661588 2 -0.806394 -3.661588 2 6.293606 -3.660588 0.35 0.591098 -3.660588 0.35 1.091098 -3.660588 0.85 0.591098 -3.660588 0.85 1.091098 -3.235118 0.2 0.441098 -3.235118 0.2 1.241098 -2.835119 0.2 -0.806394 -2.835119 0.2 0.441098 -2.835119 0.2 1.241098 -2.835119 0.2 6.293606 -2.810118 0.2 -0.806394 -2.810118 0.2 0.441098 -2.810118 0.2 1.241098 -2.810118 0.2 6.293606 -2.435118 0.2 0.441098 -2.435118 0.2 1.241098 -0.308958 0.2 2.431931 -0.308958 0.2 3.862179 -0.308958 2.2 2.431931 -0.308958 2.2 3.862179 -0.298958 0.2 2.441931 -0.298958 0.2 3.852179 -0.298958 2.2 2.441931 -0.298958 2.2 3.852179 1.181803 0.2 2.441931 1.181803 0.2 3.852179 1.181803 2.2 2.441931 1.181803 2.2 3.852179 1.191803 0.2 2.431931 1.191803 0.2 3.862179 1.191803 2.2 2.431931 1.191803 2.2 3.862179 3.191695 0.2 6.293252 3.191695 2 6.293252 3.192086 0.2 6.293606 3.192086 2 6.293606 3.245547 0.2 3.700304 3.245547 0.2 6.293252 3.245547 2 6.293252 3.245547 2.2 3.700304 3.245547 2.2 6.293252 3.255547 0.2 3.710365 3.255547 0.2 6.293252 3.255547 2 6.293252 3.255547 2.2 3.710365 3.255547 2.2 6.293252 3.385315 0.2 3.711154 3.385315 0.2 6.293252 3.385315 2 6.293252 3.385315 2.2 3.711154 3.385315 2.2 6.293252 3.395315 0.2 3.701215 3.395315 0.2 6.293252 3.395315 2 6.293252 3.395315 2.2 3.701215 3.395315 2.2 6.293252 3.638412 0 -8.506747 3.638412 0 -1.006394 3.638412 2 -8.506747 3.638412 2 -1.006394 3.66736 2 -0.816394 3.66736 2.2 -0.816394 3.674297 0.2 -0.806394 3.674297 2 -0.806394 3.698638 0.2 -0.806394 3.698638 2.2 -0.806394 3.710811 0 6.493252 3.710811 2 6.493252 3.711201 0 6.493606 3.711201 2 6.493606 3.830196 0.2 -0.800694 3.830196 2.2 -0.800694 3.838412 0.2 -8.306747 3.838412 0.2 -7.531215 3.838412 0.2 -7.506215 3.838412 0.2 -5.966673 3.838412 0.2 -5.956673 3.838412 0.2 -5.874869 3.838412 0.2 -5.864869 3.838412 0.2 -0.816394 3.838412 0.2 -0.806394 3.838412 2 -8.306747 3.838412 2 -5.966673 3.838412 2 -5.956673 3.838412 2 -5.874869 3.838412 2 -5.864869 3.838412 2 -0.816394 3.838412 2.2 -5.966673 3.838412 2.2 -5.956673 3.838412 2.2 -5.874869 3.838412 2.2 -5.864869 3.838412 2.2 -0.806394 3.843646 0.2 -0.816394 3.843646 2.2 -0.816394 4.90896 0.2 -4.70745 4.90896 0.2 -3.523995 4.90896 2.2 -4.70745 4.90896 2.2 -3.523995 4.91896 0.2 -4.69745 4.91896 0.2 -3.533995 4.91896 2.2 -4.69745 4.91896 2.2 -3.533995 5.971413 0.2 2.504815 5.971413 2.2 2.504815 5.976646 0.2 -4.69745 5.976646 0.2 -3.533995 5.976646 2.2 -4.69745 5.976646 2.2 -3.533995 5.981879 0.2 2.484815 5.981879 2.2 2.484815 5.986646 0.2 -4.70745 5.986646 0.2 -3.523995 5.986646 2.2 -4.70745 5.986646 2.2 -3.523995 6.109482 0.2 2.484815 6.109482 2.2 2.484815 6.147698 0.2 2.504815 6.147698 2.2 2.504815 6.918563 0.2 -0.987921 6.918563 0.2 -0.866239 6.918563 2.2 -0.987921 6.918563 2.2 -0.866239 6.928563 0.2 -0.977921 6.928563 0.2 -0.876239 6.928563 2.2 -0.977921 6.928563 2.2 -0.876239 7.235869 0.2 -5.956673 7.235869 0.2 -5.874869 7.235869 2.2 -5.956673 7.235869 2.2 -5.874869 7.245869 0.2 -5.966673 7.245869 0.2 -5.864869 7.245869 2.2 -5.966673 7.245869 2.2 -5.864869 7.672716 0.2 -7.931215 7.672716 0.2 -7.531215 7.672716 0.2 -7.506215 7.672716 0.2 -7.131215 8.010385 0.2 -3.738451 8.010385 0.2 -2.554996 8.010385 2.2 -3.738451 8.010385 2.2 -2.554996 8.020385 0.2 -3.728451 8.020385 0.2 -2.564996 8.020385 2.2 -3.728451 8.020385 2.2 -2.564996 8.472715 0.2 -7.931215 8.472715 0.2 -7.531215 8.472715 0.2 -7.506215 8.472715 0.2 -7.131215 9.183839 0.2 -3.728451 9.183839 0.2 -2.564996 9.183839 2.2 -3.728451 9.183839 2.2 -2.564996 9.193839 0.2 -3.738451 9.193839 0.2 -2.554996 9.193839 2.2 -3.738451 9.193839 2.2 -2.554996 10.824373 0.2 -0.987921 10.824373 0.2 -0.977921 10.824373 0.2 -0.876239 10.824373 0.2 -0.866239 10.824373 2.2 -0.987921 10.824373 2.2 -0.977921 10.824373 2.2 -0.876239 10.824373 2.2 -0.866239 10.938413 0.2 -8.306747 10.938413 0.2 -7.531215 10.938413 0.2 -7.506215 10.938413 0.2 6.293252 10.938413 2 -8.306747 10.938413 2 6.293252 11.138412 0 -8.506747 11.138412 0 6.493252 11.138412 2 -8.506747 11.138412 2 6.493252</float_array>
            <technique_common>
              <accessor source="#geom_006_positions_array" count="188" stride="3">
                <param name="X" type="float"/>
                <param name="Y" type="float"/>
                <param name="Z" type="float"/>
              </accessor>
            </technique_common>
          </source>
          <vertices id="geom_006_vertices">
            <input semantic="POSITION" source="#geom_006_positions"/>
          </vertices>
          <triangles count="2" material="mat_006">
            <input semantic="VERTEX" source="#geom_006_vertices" offset="0"/>
            <p>23 19 24 24 19 20</p>
          </triangles>
        </mesh>
      </geometry>

      <geometry id="geom_007" name="material_007">
        <mesh>
          <source id="geom_007_positions">
            <float_array id="geom_007_positions_array" count="564">-3.861588 0 -1.006394 -3.861588 0 6.493606 -3.861588 2 -1.006394 -3.861588 2 6.493606 -3.661588 0.2 -0.806394 -3.661588 0.2 6.293606 -3.661588 0.35 0.591098 -3.661588 0.35 1.091098 -3.661588 0.85 0.591098 -3.661588 0.85 1.091098 -3.661588 2 -0.806394 -3.661588 2 6.293606 -3.660588 0.35 0.591098 -3.660588 0.35 1.091098 -3.660588 0.85 0.591098 -3.660588 0.85 1.091098 -3.235118 0.2 0.441098 -3.235118 0.2 1.241098 -2.835119 0.2 -0.806394 -2.835119 0.2 0.441098 -2.835119 0.2 1.241098 -2.835119 0.2 6.293606 -2.810118 0.2 -0.806394 -2.810118 0.2 0.441098 -2.810118 0.2 1.241098 -2.810118 0.2 6.293606 -2.435118 0.2 0.441098 -2.435118 0.2 1.241098 -0.308958 0.2 2.431931 -0.308958 0.2 3.862179 -0.308958 2.2 2.431931 -0.308958 2.2 3.862179 -0.298958 0.2 2.441931 -0.298958 0.2 3.852179 -0.298958 2.2 2.441931 -0.298958 2.2 3.852179 1.181803 0.2 2.441931 1.181803 0.2 3.852179 1.181803 2.2 2.441931 1.181803 2.2 3.852179 1.191803 0.2 2.431931 1.191803 0.2 3.862179 1.191803 2.2 2.431931 1.191803 2.2 3.862179 3.191695 0.2 6.293252 3.191695 2 6.293252 3.192086 0.2 6.293606 3.192086 2 6.293606 3.245547 0.2 3.700304 3.245547 0.2 6.293252 3.245547 2 6.293252 3.245547 2.2 3.700304 3.245547 2.2 6.293252 3.255547 0.2 3.710365 3.255547 0.2 6.293252 3.255547 2 6.293252 3.255547 2.2 3.710365 3.255547 2.2 6.293252 3.385315 0.2 3.711154 3.385315 0.2 6.293252 3.385315 2 6.293252 3.385315 2.2 3.711154 3.385315 2.2 6.293252 3.395315 0.2 3.701215 3.395315 0.2 6.293252 3.395315 2 6.293252 3.395315 2.2 3.701215 3.395315 2.2 6.293252 3.638412 0 -8.506747 3.638412 0 -1.006394 3.638412 2 -8.506747 3.638412 2 -1.006394 3.66736 2 -0.816394 3.66736 2.2 -0.816394 3.674297 0.2 -0.806394 3.674297 2 -0.806394 3.698638 0.2 -0.806394 3.698638 2.2 -0.806394 3.710811 0 6.493252 3.710811 2 6.493252 3.711201 0 6.493606 3.711201 2 6.493606 3.830196 0.2 -0.800694 3.830196 2.2 -0.800694 3.838412 0.2 -8.306747 3.838412 0.2 -7.531215 3.838412 0.2 -7.506215 3.838412 0.2 -5.966673 3.838412 0.2 -5.956673 3.838412 0.2 -5.874869 3.838412 0.2 -5.864869 3.838412 0.2 -0.816394 3.838412 0.2 -0.806394 3.838412 2 -8.306747 3.838412 2 -5.966673 3.838412 2 -5.956673 3.838412 2 -5.874869 3.838412 2 -5.864869 3.838412 2 -0.816394 3.838412 2.2 -5.966673 3.838412 2.2 -5.956673 3.838412 2.2 -5.874869 3.838412 2.2 -5.864869 3.838412 2.2 -0.806394 3.843646 0.2 -0.816394 3.843646 2.2 -0.816394 4.90896 0.2 -4.70745 4.90896 0.2 -3.523995 4.90896 2.2 -4.70745 4.90896 2.2 -3.523995 4.91896 0.2 -4.69745 4.91896 0.2 -3.533995 4.91896 2.2 -4.69745 4.91896 2.2 -3.533995 5.971413 0.2 2.504815 5.971413 2.2 2.504815 5.976646 0.2 -4.69745 5.976646 0.2 -3.533995 5.976646 2.2 -4.69745 5.976646 2.2 -3.533995 5.981879 0.2 2.484815 5.981879 2.2 2.484815 5.986646 0.2 -4.70745 5.986646 0.2 -3.523995 5.986646 2.2 -4.70745 5.986646 2.2 -3.523995 6.109482 0.2 2.484815 6.109482 2.2 2.484815 6.147698 0.2 2.504815 6.147698 2.2 2.504815 6.918563 0.2 -0.987921 6.918563 0.2 -0.866239 6.918563 2.2 -0.987921 6.918563 2.2 -0.866239 6.928563 0.2 -0.977921 6.928563 0.2 -0.876239 6.928563 2.2 -0.977921 6.928563 2.2 -0.876239 7.235869 0.2 -5.956673 7.235869 0.2 -5.874869 7.235869 2.2 -5.956673 7.235869 2.2 -5.874869 7.245869 0.2 -5.966673 7.245869 0.2 -5.864869 7.245869 2.2 -5.966673 7.245869 2.2 -5.864869 7.672716 0.2 -7.931215 7.672716 0.2 -7.531215 7.672716 0.2 -7.506215 7.672716 0.2 -7.131215 8.010385 0.2 -3.738451 8.010385 0.2 -2.554996 8.010385 2.2 -3.738451 8.010385 2.2 -2.554996 8.020385 0.2 -3.728451 8.020385 0.2 -2.564996 8.020385 2.2 -3.728451 8.020385 2.2 -2.564996 8.472715 0.2 -7.931215 8.472715 0.2 -7.531215 8.472715 0.2 -7.506215 8.472715 0.2 -7.131215 9.183839 0.2 -3.728451 9.183839 0.2 -2.564996 9.183839 2.2 -3.728451 9.183839 2.2 -2.564996 9.193839 0.2 -3.738451 9.193839 0.2 -2.554996 9.193839 2.2 -3.738451 9.193839 2.2 -2.554996 10.824373 0.2 -0.987921 10.824373 0.2 -0.977921 10.824373 0.2 -0.876239 10.824373 0.2 -0.866239 10.824373 2.2 -0.987921 10.824373 2.2 -0.977921 10.824373 2.2 -0.876239 10.824373 2.2 -0.866239 10.938413 0.2 -8.306747 10.938413 0.2 -7.531215 10.938413 0.2 -7.506215 10.938413 0.2 6.293252 10.938413 2 -8.306747 10.938413 2 6.293252 11.138412 0 -8.506747 11.138412 0 6.493252 11.138412 2 -8.506747 11.138412 2 6.493252</float_array>
            <technique_common>
              <accessor source="#geom_007_positions_array" count="188" stride="3">
                <param name="X" type="float"/>
                <param name="Y" type="float"/>
                <param name="Z" type="float"/>
              </accessor>
            </technique_common>
          </source>
          <vertices id="geom_007_vertices">
            <input semantic="POSITION" source="#geom_007_positions"/>
          </vertices>
          <triangles count="2" material="mat_007">
            <input semantic="VERTEX" source="#geom_007_vertices" offset="0"/>
            <p>19 16 20 20 16 17</p>
          </triangles>
        </mesh>
      </geometry>

      <geometry id="geom_008" name="material_008">
        <mesh>
          <source id="geom_008_positions">
            <float_array id="geom_008_positions_array" count="564">-3.861588 0 -1.006394 -3.861588 0 6.493606 -3.861588 2 -1.006394 -3.861588 2 6.493606 -3.661588 0.2 -0.806394 -3.661588 0.2 6.293606 -3.661588 0.35 0.591098 -3.661588 0.35 1.091098 -3.661588 0.85 0.591098 -3.661588 0.85 1.091098 -3.661588 2 -0.806394 -3.661588 2 6.293606 -3.660588 0.35 0.591098 -3.660588 0.35 1.091098 -3.660588 0.85 0.591098 -3.660588 0.85 1.091098 -3.235118 0.2 0.441098 -3.235118 0.2 1.241098 -2.835119 0.2 -0.806394 -2.835119 0.2 0.441098 -2.835119 0.2 1.241098 -2.835119 0.2 6.293606 -2.810118 0.2 -0.806394 -2.810118 0.2 0.441098 -2.810118 0.2 1.241098 -2.810118 0.2 6.293606 -2.435118 0.2 0.441098 -2.435118 0.2 1.241098 -0.308958 0.2 2.431931 -0.308958 0.2 3.862179 -0.308958 2.2 2.431931 -0.308958 2.2 3.862179 -0.298958 0.2 2.441931 -0.298958 0.2 3.852179 -0.298958 2.2 2.441931 -0.298958 2.2 3.852179 1.181803 0.2 2.441931 1.181803 0.2 3.852179 1.181803 2.2 2.441931 1.181803 2.2 3.852179 1.191803 0.2 2.431931 1.191803 0.2 3.862179 1.191803 2.2 2.431931 1.191803 2.2 3.862179 3.191695 0.2 6.293252 3.191695 2 6.293252 3.192086 0.2 6.293606 3.192086 2 6.293606 3.245547 0.2 3.700304 3.245547 0.2 6.293252 3.245547 2 6.293252 3.245547 2.2 3.700304 3.245547 2.2 6.293252 3.255547 0.2 3.710365 3.255547 0.2 6.293252 3.255547 2 6.293252 3.255547 2.2 3.710365 3.255547 2.2 6.293252 3.385315 0.2 3.711154 3.385315 0.2 6.293252 3.385315 2 6.293252 3.385315 2.2 3.711154 3.385315 2.2 6.293252 3.395315 0.2 3.701215 3.395315 0.2 6.293252 3.395315 2 6.293252 3.395315 2.2 3.701215 3.395315 2.2 6.293252 3.638412 0 -8.506747 3.638412 0 -1.006394 3.638412 2 -8.506747 3.638412 2 -1.006394 3.66736 2 -0.816394 3.66736 2.2 -0.816394 3.674297 0.2 -0.806394 3.674297 2 -0.806394 3.698638 0.2 -0.806394 3.698638 2.2 -0.806394 3.710811 0 6.493252 3.710811 2 6.493252 3.711201 0 6.493606 3.711201 2 6.493606 3.830196 0.2 -0.800694 3.830196 2.2 -0.800694 3.838412 0.2 -8.306747 3.838412 0.2 -7.531215 3.838412 0.2 -7.506215 3.838412 0.2 -5.966673 3.838412 0.2 -5.956673 3.838412 0.2 -5.874869 3.838412 0.2 -5.864869 3.838412 0.2 -0.816394 3.838412 0.2 -0.806394 3.838412 2 -8.306747 3.838412 2 -5.966673 3.838412 2 -5.956673 3.838412 2 -5.874869 3.838412 2 -5.864869 3.838412 2 -0.816394 3.838412 2.2 -5.966673 3.838412 2.2 -5.956673 3.838412 2.2 -5.874869 3.838412 2.2 -5.864869 3.838412 2.2 -0.806394 3.843646 0.2 -0.816394 3.843646 2.2 -0.816394 4.90896 0.2 -4.70745 4.90896 0.2 -3.523995 4.90896 2.2 -4.70745 4.90896 2.2 -3.523995 4.91896 0.2 -4.69745 4.91896 0.2 -3.533995 4.91896 2.2 -4.69745 4.91896 2.2 -3.533995 5.971413 0.2 2.504815 5.971413 2.2 2.504815 5.976646 0.2 -4.69745 5.976646 0.2 -3.533995 5.976646 2.2 -4.69745 5.976646 2.2 -3.533995 5.981879 0.2 2.484815 5.981879 2.2 2.484815 5.986646 0.2 -4.70745 5.986646 0.2 -3.523995 5.986646 2.2 -4.70745 5.986646 2.2 -3.523995 6.109482 0.2 2.484815 6.109482 2.2 2.484815 6.147698 0.2 2.504815 6.147698 2.2 2.504815 6.918563 0.2 -0.987921 6.918563 0.2 -0.866239 6.918563 2.2 -0.987921 6.918563 2.2 -0.866239 6.928563 0.2 -0.977921 6.928563 0.2 -0.876239 6.928563 2.2 -0.977921 6.928563 2.2 -0.876239 7.235869 0.2 -5.956673 7.235869 0.2 -5.874869 7.235869 2.2 -5.956673 7.235869 2.2 -5.874869 7.245869 0.2 -5.966673 7.245869 0.2 -5.864869 7.245869 2.2 -5.966673 7.245869 2.2 -5.864869 7.672716 0.2 -7.931215 7.672716 0.2 -7.531215 7.672716 0.2 -7.506215 7.672716 0.2 -7.131215 8.010385 0.2 -3.738451 8.010385 0.2 -2.554996 8.010385 2.2 -3.738451 8.010385 2.2 -2.554996 8.020385 0.2 -3.728451 8.020385 0.2 -2.564996 8.020385 2.2 -3.728451 8.020385 2.2 -2.564996 8.472715 0.2 -7.931215 8.472715 0.2 -7.531215 8.472715 0.2 -7.506215 8.472715 0.2 -7.131215 9.183839 0.2 -3.728451 9.183839 0.2 -2.564996 9.183839 2.2 -3.728451 9.183839 2.2 -2.564996 9.193839 0.2 -3.738451 9.193839 0.2 -2.554996 9.193839 2.2 -3.738451 9.193839 2.2 -2.554996 10.824373 0.2 -0.987921 10.824373 0.2 -0.977921 10.824373 0.2 -0.876239 10.824373 0.2 -0.866239 10.824373 2.2 -0.987921 10.824373 2.2 -0.977921 10.824373 2.2 -0.876239 10.824373 2.2 -0.866239 10.938413 0.2 -8.306747 10.938413 0.2 -7.531215 10.938413 0.2 -7.506215 10.938413 0.2 6.293252 10.938413 2 -8.306747 10.938413 2 6.293252 11.138412 0 -8.506747 11.138412 0 6.493252 11.138412 2 -8.506747 11.138412 2 6.493252</float_array>
            <technique_common>
              <accessor source="#geom_008_positions_array" count="188" stride="3">
                <param name="X" type="float"/>
                <param name="Y" type="float"/>
                <param name="Z" type="float"/>
              </accessor>
            </technique_common>
          </source>
          <vertices id="geom_008_vertices">
            <input semantic="POSITION" source="#geom_008_positions"/>
          </vertices>
          <triangles count="2" material="mat_008">
            <input semantic="VERTEX" source="#geom_008_vertices" offset="0"/>
            <p>149 161 148 148 161 160</p>
          </triangles>
        </mesh>
      </geometry>

      <geometry id="geom_009" name="material_009">
        <mesh>
          <source id="geom_009_positions">
            <float_array id="geom_009_positions_array" count="564">-3.861588 0 -1.006394 -3.861588 0 6.493606 -3.861588 2 -1.006394 -3.861588 2 6.493606 -3.661588 0.2 -0.806394 -3.661588 0.2 6.293606 -3.661588 0.35 0.591098 -3.661588 0.35 1.091098 -3.661588 0.85 0.591098 -3.661588 0.85 1.091098 -3.661588 2 -0.806394 -3.661588 2 6.293606 -3.660588 0.35 0.591098 -3.660588 0.35 1.091098 -3.660588 0.85 0.591098 -3.660588 0.85 1.091098 -3.235118 0.2 0.441098 -3.235118 0.2 1.241098 -2.835119 0.2 -0.806394 -2.835119 0.2 0.441098 -2.835119 0.2 1.241098 -2.835119 0.2 6.293606 -2.810118 0.2 -0.806394 -2.810118 0.2 0.441098 -2.810118 0.2 1.241098 -2.810118 0.2 6.293606 -2.435118 0.2 0.441098 -2.435118 0.2 1.241098 -0.308958 0.2 2.431931 -0.308958 0.2 3.862179 -0.308958 2.2 2.431931 -0.308958 2.2 3.862179 -0.298958 0.2 2.441931 -0.298958 0.2 3.852179 -0.298958 2.2 2.441931 -0.298958 2.2 3.852179 1.181803 0.2 2.441931 1.181803 0.2 3.852179 1.181803 2.2 2.441931 1.181803 2.2 3.852179 1.191803 0.2 2.431931 1.191803 0.2 3.862179 1.191803 2.2 2.431931 1.191803 2.2 3.862179 3.191695 0.2 6.293252 3.191695 2 6.293252 3.192086 0.2 6.293606 3.192086 2 6.293606 3.245547 0.2 3.700304 3.245547 0.2 6.293252 3.245547 2 6.293252 3.245547 2.2 3.700304 3.245547 2.2 6.293252 3.255547 0.2 3.710365 3.255547 0.2 6.293252 3.255547 2 6.293252 3.255547 2.2 3.710365 3.255547 2.2 6.293252 3.385315 0.2 3.711154 3.385315 0.2 6.293252 3.385315 2 6.293252 3.385315 2.2 3.711154 3.385315 2.2 6.293252 3.395315 0.2 3.701215 3.395315 0.2 6.293252 3.395315 2 6.293252 3.395315 2.2 3.701215 3.395315 2.2 6.293252 3.638412 0 -8.506747 3.638412 0 -1.006394 3.638412 2 -8.506747 3.638412 2 -1.006394 3.66736 2 -0.816394 3.66736 2.2 -0.816394 3.674297 0.2 -0.806394 3.674297 2 -0.806394 3.698638 0.2 -0.806394 3.698638 2.2 -0.806394 3.710811 0 6.493252 3.710811 2 6.493252 3.711201 0 6.493606 3.711201 2 6.493606 3.830196 0.2 -0.800694 3.830196 2.2 -0.800694 3.838412 0.2 -8.306747 3.838412 0.2 -7.531215 3.838412 0.2 -7.506215 3.838412 0.2 -5.966673 3.838412 0.2 -5.956673 3.838412 0.2 -5.874869 3.838412 0.2 -5.864869 3.838412 0.2 -0.816394 3.838412 0.2 -0.806394 3.838412 2 -8.306747 3.838412 2 -5.966673 3.838412 2 -5.956673 3.838412 2 -5.874869 3.838412 2 -5.864869 3.838412 2 -0.816394 3.838412 2.2 -5.966673 3.838412 2.2 -5.956673 3.838412 2.2 -5.874869 3.838412 2.2 -5.864869 3.838412 2.2 -0.806394 3.843646 0.2 -0.816394 3.843646 2.2 -0.816394 4.90896 0.2 -4.70745 4.90896 0.2 -3.523995 4.90896 2.2 -4.70745 4.90896 2.2 -3.523995 4.91896 0.2 -4.69745 4.91896 0.2 -3.533995 4.91896 2.2 -4.69745 4.91896 2.2 -3.533995 5.971413 0.2 2.504815 5.971413 2.2 2.504815 5.976646 0.2 -4.69745 5.976646 0.2 -3.533995 5.976646 2.2 -4.69745 5.976646 2.2 -3.533995 5.981879 0.2 2.484815 5.981879 2.2 2.484815 5.986646 0.2 -4.70745 5.986646 0.2 -3.523995 5.986646 2.2 -4.70745 5.986646 2.2 -3.523995 6.109482 0.2 2.484815 6.109482 2.2 2.484815 6.147698 0.2 2.504815 6.147698 2.2 2.504815 6.918563 0.2 -0.987921 6.918563 0.2 -0.866239 6.918563 2.2 -0.987921 6.918563 2.2 -0.866239 6.928563 0.2 -0.977921 6.928563 0.2 -0.876239 6.928563 2.2 -0.977921 6.928563 2.2 -0.876239 7.235869 0.2 -5.956673 7.235869 0.2 -5.874869 7.235869 2.2 -5.956673 7.235869 2.2 -5.874869 7.245869 0.2 -5.966673 7.245869 0.2 -5.864869 7.245869 2.2 -5.966673 7.245869 2.2 -5.864869 7.672716 0.2 -7.931215 7.672716 0.2 -7.531215 7.672716 0.2 -7.506215 7.672716 0.2 -7.131215 8.010385 0.2 -3.738451 8.010385 0.2 -2.554996 8.010385 2.2 -3.738451 8.010385 2.2 -2.554996 8.020385 0.2 -3.728451 8.020385 0.2 -2.564996 8.020385 2.2 -3.728451 8.020385 2.2 -2.564996 8.472715 0.2 -7.931215 8.472715 0.2 -7.531215 8.472715 0.2 -7.506215 8.472715 0.2 -7.131215 9.183839 0.2 -3.728451 9.183839 0.2 -2.564996 9.183839 2.2 -3.728451 9.183839 2.2 -2.564996 9.193839 0.2 -3.738451 9.193839 0.2 -2.554996 9.193839 2.2 -3.738451 9.193839 2.2 -2.554996 10.824373 0.2 -0.987921 10.824373 0.2 -0.977921 10.824373 0.2 -0.876239 10.824373 0.2 -0.866239 10.824373 2.2 -0.987921 10.824373 2.2 -0.977921 10.824373 2.2 -0.876239 10.824373 2.2 -0.866239 10.938413 0.2 -8.306747 10.938413 0.2 -7.531215 10.938413 0.2 -7.506215 10.938413 0.2 6.293252 10.938413 2 -8.306747 10.938413 2 6.293252 11.138412 0 -8.506747 11.138412 0 6.493252 11.138412 2 -8.506747 11.138412 2 6.493252</float_array>
            <technique_common>
              <accessor source="#geom_009_positions_array" count="188" stride="3">
                <param name="X" type="float"/>
                <param name="Y" type="float"/>
                <param name="Z" type="float"/>
              </accessor>
            </technique_common>
          </source>
          <vertices id="geom_009_vertices">
            <input semantic="POSITION" source="#geom_009_positions"/>
          </vertices>
          <triangles count="2" material="mat_009">
            <input semantic="VERTEX" source="#geom_009_vertices" offset="0"/>
            <p>158 146 159 159 146 147</p>
          </triangles>
        </mesh>
      </geometry>

      <geometry id="geom_010" name="material_010">
        <mesh>
          <source id="geom_010_positions">
            <float_array id="geom_010_positions_array" count="564">-3.861588 0 -1.006394 -3.861588 0 6.493606 -3.861588 2 -1.006394 -3.861588 2 6.493606 -3.661588 0.2 -0.806394 -3.661588 0.2 6.293606 -3.661588 0.35 0.591098 -3.661588 0.35 1.091098 -3.661588 0.85 0.591098 -3.661588 0.85 1.091098 -3.661588 2 -0.806394 -3.661588 2 6.293606 -3.660588 0.35 0.591098 -3.660588 0.35 1.091098 -3.660588 0.85 0.591098 -3.660588 0.85 1.091098 -3.235118 0.2 0.441098 -3.235118 0.2 1.241098 -2.835119 0.2 -0.806394 -2.835119 0.2 0.441098 -2.835119 0.2 1.241098 -2.835119 0.2 6.293606 -2.810118 0.2 -0.806394 -2.810118 0.2 0.441098 -2.810118 0.2 1.241098 -2.810118 0.2 6.293606 -2.435118 0.2 0.441098 -2.435118 0.2 1.241098 -0.308958 0.2 2.431931 -0.308958 0.2 3.862179 -0.308958 2.2 2.431931 -0.308958 2.2 3.862179 -0.298958 0.2 2.441931 -0.298958 0.2 3.852179 -0.298958 2.2 2.441931 -0.298958 2.2 3.852179 1.181803 0.2 2.441931 1.181803 0.2 3.852179 1.181803 2.2 2.441931 1.181803 2.2 3.852179 1.191803 0.2 2.431931 1.191803 0.2 3.862179 1.191803 2.2 2.431931 1.191803 2.2 3.862179 3.191695 0.2 6.293252 3.191695 2 6.293252 3.192086 0.2 6.293606 3.192086 2 6.293606 3.245547 0.2 3.700304 3.245547 0.2 6.293252 3.245547 2 6.293252 3.245547 2.2 3.700304 3.245547 2.2 6.293252 3.255547 0.2 3.710365 3.255547 0.2 6.293252 3.255547 2 6.293252 3.255547 2.2 3.710365 3.255547 2.2 6.293252 3.385315 0.2 3.711154 3.385315 0.2 6.293252 3.385315 2 6.293252 3.385315 2.2 3.711154 3.385315 2.2 6.293252 3.395315 0.2 3.701215 3.395315 0.2 6.293252 3.395315 2 6.293252 3.395315 2.2 3.701215 3.395315 2.2 6.293252 3.638412 0 -8.506747 3.638412 0 -1.006394 3.638412 2 -8.506747 3.638412 2 -1.006394 3.66736 2 -0.816394 3.66736 2.2 -0.816394 3.674297 0.2 -0.806394 3.674297 2 -0.806394 3.698638 0.2 -0.806394 3.698638 2.2 -0.806394 3.710811 0 6.493252 3.710811 2 6.493252 3.711201 0 6.493606 3.711201 2 6.493606 3.830196 0.2 -0.800694 3.830196 2.2 -0.800694 3.838412 0.2 -8.306747 3.838412 0.2 -7.531215 3.838412 0.2 -7.506215 3.838412 0.2 -5.966673 3.838412 0.2 -5.956673 3.838412 0.2 -5.874869 3.838412 0.2 -5.864869 3.838412 0.2 -0.816394 3.838412 0.2 -0.806394 3.838412 2 -8.306747 3.838412 2 -5.966673 3.838412 2 -5.956673 3.838412 2 -5.874869 3.838412 2 -5.864869 3.838412 2 -0.816394 3.838412 2.2 -5.966673 3.838412 2.2 -5.956673 3.838412 2.2 -5.874869 3.838412 2.2 -5.864869 3.838412 2.2 -0.806394 3.843646 0.2 -0.816394 3.843646 2.2 -0.816394 4.90896 0.2 -4.70745 4.90896 0.2 -3.523995 4.90896 2.2 -4.70745 4.90896 2.2 -3.523995 4.91896 0.2 -4.69745 4.91896 0.2 -3.533995 4.91896 2.2 -4.69745 4.91896 2.2 -3.533995 5.971413 0.2 2.504815 5.971413 2.2 2.504815 5.976646 0.2 -4.69745 5.976646 0.2 -3.533995 5.976646 2.2 -4.69745 5.976646 2.2 -3.533995 5.981879 0.2 2.484815 5.981879 2.2 2.484815 5.986646 0.2 -4.70745 5.986646 0.2 -3.523995 5.986646 2.2 -4.70745 5.986646 2.2 -3.523995 6.109482 0.2 2.484815 6.109482 2.2 2.484815 6.147698 0.2 2.504815 6.147698 2.2 2.504815 6.918563 0.2 -0.987921 6.918563 0.2 -0.866239 6.918563 2.2 -0.987921 6.918563 2.2 -0.866239 6.928563 0.2 -0.977921 6.928563 0.2 -0.876239 6.928563 2.2 -0.977921 6.928563 2.2 -0.876239 7.235869 0.2 -5.956673 7.235869 0.2 -5.874869 7.235869 2.2 -5.956673 7.235869 2.2 -5.874869 7.245869 0.2 -5.966673 7.245869 0.2 -5.864869 7.245869 2.2 -5.966673 7.245869 2.2 -5.864869 7.672716 0.2 -7.931215 7.672716 0.2 -7.531215 7.672716 0.2 -7.506215 7.672716 0.2 -7.131215 8.010385 0.2 -3.738451 8.010385 0.2 -2.554996 8.010385 2.2 -3.738451 8.010385 2.2 -2.554996 8.020385 0.2 -3.728451 8.020385 0.2 -2.564996 8.020385 2.2 -3.728451 8.020385 2.2 -2.564996 8.472715 0.2 -7.931215 8.472715 0.2 -7.531215 8.472715 0.2 -7.506215 8.472715 0.2 -7.131215 9.183839 0.2 -3.728451 9.183839 0.2 -2.564996 9.183839 2.2 -3.728451 9.183839 2.2 -2.564996 9.193839 0.2 -3.738451 9.193839 0.2 -2.554996 9.193839 2.2 -3.738451 9.193839 2.2 -2.554996 10.824373 0.2 -0.987921 10.824373 0.2 -0.977921 10.824373 0.2 -0.876239 10.824373 0.2 -0.866239 10.824373 2.2 -0.987921 10.824373 2.2 -0.977921 10.824373 2.2 -0.876239 10.824373 2.2 -0.866239 10.938413 0.2 -8.306747 10.938413 0.2 -7.531215 10.938413 0.2 -7.506215 10.938413 0.2 6.293252 10.938413 2 -8.306747 10.938413 2 6.293252 11.138412 0 -8.506747 11.138412 0 6.493252 11.138412 2 -8.506747 11.138412 2 6.493252</float_array>
            <technique_common>
              <accessor source="#geom_010_positions_array" count="188" stride="3">
                <param name="X" type="float"/>
                <param name="Y" type="float"/>
                <param name="Z" type="float"/>
              </accessor>
            </technique_common>
          </source>
          <vertices id="geom_010_vertices">
            <input semantic="POSITION" source="#geom_010_positions"/>
          </vertices>
          <triangles count="2" material="mat_010">
            <input semantic="VERTEX" source="#geom_010_vertices" offset="0"/>
            <p>27 26 24 24 26 23</p>
          </triangles>
        </mesh>
      </geometry>

      <geometry id="geom_011" name="material_011">
        <mesh>
          <source id="geom_011_positions">
            <float_array id="geom_011_positions_array" count="564">-3.861588 0 -1.006394 -3.861588 0 6.493606 -3.861588 2 -1.006394 -3.861588 2 6.493606 -3.661588 0.2 -0.806394 -3.661588 0.2 6.293606 -3.661588 0.35 0.591098 -3.661588 0.35 1.091098 -3.661588 0.85 0.591098 -3.661588 0.85 1.091098 -3.661588 2 -0.806394 -3.661588 2 6.293606 -3.660588 0.35 0.591098 -3.660588 0.35 1.091098 -3.660588 0.85 0.591098 -3.660588 0.85 1.091098 -3.235118 0.2 0.441098 -3.235118 0.2 1.241098 -2.835119 0.2 -0.806394 -2.835119 0.2 0.441098 -2.835119 0.2 1.241098 -2.835119 0.2 6.293606 -2.810118 0.2 -0.806394 -2.810118 0.2 0.441098 -2.810118 0.2 1.241098 -2.810118 0.2 6.293606 -2.435118 0.2 0.441098 -2.435118 0.2 1.241098 -0.308958 0.2 2.431931 -0.308958 0.2 3.862179 -0.308958 2.2 2.431931 -0.308958 2.2 3.862179 -0.298958 0.2 2.441931 -0.298958 0.2 3.852179 -0.298958 2.2 2.441931 -0.298958 2.2 3.852179 1.181803 0.2 2.441931 1.181803 0.2 3.852179 1.181803 2.2 2.441931 1.181803 2.2 3.852179 1.191803 0.2 2.431931 1.191803 0.2 3.862179 1.191803 2.2 2.431931 1.191803 2.2 3.862179 3.191695 0.2 6.293252 3.191695 2 6.293252 3.192086 0.2 6.293606 3.192086 2 6.293606 3.245547 0.2 3.700304 3.245547 0.2 6.293252 3.245547 2 6.293252 3.245547 2.2 3.700304 3.245547 2.2 6.293252 3.255547 0.2 3.710365 3.255547 0.2 6.293252 3.255547 2 6.293252 3.255547 2.2 3.710365 3.255547 2.2 6.293252 3.385315 0.2 3.711154 3.385315 0.2 6.293252 3.385315 2 6.293252 3.385315 2.2 3.711154 3.385315 2.2 6.293252 3.395315 0.2 3.701215 3.395315 0.2 6.293252 3.395315 2 6.293252 3.395315 2.2 3.701215 3.395315 2.2 6.293252 3.638412 0 -8.506747 3.638412 0 -1.006394 3.638412 2 -8.506747 3.638412 2 -1.006394 3.66736 2 -0.816394 3.66736 2.2 -0.816394 3.674297 0.2 -0.806394 3.674297 2 -0.806394 3.698638 0.2 -0.806394 3.698638 2.2 -0.806394 3.710811 0 6.493252 3.710811 2 6.493252 3.711201 0 6.493606 3.711201 2 6.493606 3.830196 0.2 -0.800694 3.830196 2.2 -0.800694 3.838412 0.2 -8.306747 3.838412 0.2 -7.531215 3.838412 0.2 -7.506215 3.838412 0.2 -5.966673 3.838412 0.2 -5.956673 3.838412 0.2 -5.874869 3.838412 0.2 -5.864869 3.838412 0.2 -0.816394 3.838412 0.2 -0.806394 3.838412 2 -8.306747 3.838412 2 -5.966673 3.838412 2 -5.956673 3.838412 2 -5.874869 3.838412 2 -5.864869 3.838412 2 -0.816394 3.838412 2.2 -5.966673 3.838412 2.2 -5.956673 3.838412 2.2 -5.874869 3.838412 2.2 -5.864869 3.838412 2.2 -0.806394 3.843646 0.2 -0.816394 3.843646 2.2 -0.816394 4.90896 0.2 -4.70745 4.90896 0.2 -3.523995 4.90896 2.2 -4.70745 4.90896 2.2 -3.523995 4.91896 0.2 -4.69745 4.91896 0.2 -3.533995 4.91896 2.2 -4.69745 4.91896 2.2 -3.533995 5.971413 0.2 2.504815 5.971413 2.2 2.504815 5.976646 0.2 -4.69745 5.976646 0.2 -3.533995 5.976646 2.2 -4.69745 5.976646 2.2 -3.533995 5.981879 0.2 2.484815 5.981879 2.2 2.484815 5.986646 0.2 -4.70745 5.986646 0.2 -3.523995 5.986646 2.2 -4.70745 5.986646 2.2 -3.523995 6.109482 0.2 2.484815 6.109482 2.2 2.484815 6.147698 0.2 2.504815 6.147698 2.2 2.504815 6.918563 0.2 -0.987921 6.918563 0.2 -0.866239 6.918563 2.2 -0.987921 6.918563 2.2 -0.866239 6.928563 0.2 -0.977921 6.928563 0.2 -0.876239 6.928563 2.2 -0.977921 6.928563 2.2 -0.876239 7.235869 0.2 -5.956673 7.235869 0.2 -5.874869 7.235869 2.2 -5.956673 7.235869 2.2 -5.874869 7.245869 0.2 -5.966673 7.245869 0.2 -5.864869 7.245869 2.2 -5.966673 7.245869 2.2 -5.864869 7.672716 0.2 -7.931215 7.672716 0.2 -7.531215 7.672716 0.2 -7.506215 7.672716 0.2 -7.131215 8.010385 0.2 -3.738451 8.010385 0.2 -2.554996 8.010385 2.2 -3.738451 8.010385 2.2 -2.554996 8.020385 0.2 -3.728451 8.020385 0.2 -2.564996 8.020385 2.2 -3.728451 8.020385 2.2 -2.564996 8.472715 0.2 -7.931215 8.472715 0.2 -7.531215 8.472715 0.2 -7.506215 8.472715 0.2 -7.131215 9.183839 0.2 -3.728451 9.183839 0.2 -2.564996 9.183839 2.2 -3.728451 9.183839 2.2 -2.564996 9.193839 0.2 -3.738451 9.193839 0.2 -2.554996 9.193839 2.2 -3.738451 9.193839 2.2 -2.554996 10.824373 0.2 -0.987921 10.824373 0.2 -0.977921 10.824373 0.2 -0.876239 10.824373 0.2 -0.866239 10.824373 2.2 -0.987921 10.824373 2.2 -0.977921 10.824373 2.2 -0.876239 10.824373 2.2 -0.866239 10.938413 0.2 -8.306747 10.938413 0.2 -7.531215 10.938413 0.2 -7.506215 10.938413 0.2 6.293252 10.938413 2 -8.306747 10.938413 2 6.293252 11.138412 0 -8.506747 11.138412 0 6.493252 11.138412 2 -8.506747 11.138412 2 6.493252</float_array>
            <technique_common>
              <accessor source="#geom_011_positions_array" count="188" stride="3">
                <param name="X" type="float"/>
                <param name="Y" type="float"/>
                <param name="Z" type="float"/>
              </accessor>
            </technique_common>
          </source>
          <vertices id="geom_011_vertices">
            <input semantic="POSITION" source="#geom_011_positions"/>
          </vertices>
          <triangles count="2" material="mat_011">
            <input semantic="VERTEX" source="#geom_011_vertices" offset="0"/>
            <p>14 12 8 8 12 6</p>
          </triangles>
        </mesh>
      </geometry>

      <geometry id="geom_012" name="material_012">
        <mesh>
          <source id="geom_012_positions">
            <float_array id="geom_012_positions_array" count="564">-3.861588 0 -1.006394 -3.861588 0 6.493606 -3.861588 2 -1.006394 -3.861588 2 6.493606 -3.661588 0.2 -0.806394 -3.661588 0.2 6.293606 -3.661588 0.35 0.591098 -3.661588 0.35 1.091098 -3.661588 0.85 0.591098 -3.661588 0.85 1.091098 -3.661588 2 -0.806394 -3.661588 2 6.293606 -3.660588 0.35 0.591098 -3.660588 0.35 1.091098 -3.660588 0.85 0.591098 -3.660588 0.85 1.091098 -3.235118 0.2 0.441098 -3.235118 0.2 1.241098 -2.835119 0.2 -0.806394 -2.835119 0.2 0.441098 -2.835119 0.2 1.241098 -2.835119 0.2 6.293606 -2.810118 0.2 -0.806394 -2.810118 0.2 0.441098 -2.810118 0.2 1.241098 -2.810118 0.2 6.293606 -2.435118 0.2 0.441098 -2.435118 0.2 1.241098 -0.308958 0.2 2.431931 -0.308958 0.2 3.862179 -0.308958 2.2 2.431931 -0.308958 2.2 3.862179 -0.298958 0.2 2.441931 -0.298958 0.2 3.852179 -0.298958 2.2 2.441931 -0.298958 2.2 3.852179 1.181803 0.2 2.441931 1.181803 0.2 3.852179 1.181803 2.2 2.441931 1.181803 2.2 3.852179 1.191803 0.2 2.431931 1.191803 0.2 3.862179 1.191803 2.2 2.431931 1.191803 2.2 3.862179 3.191695 0.2 6.293252 3.191695 2 6.293252 3.192086 0.2 6.293606 3.192086 2 6.293606 3.245547 0.2 3.700304 3.245547 0.2 6.293252 3.245547 2 6.293252 3.245547 2.2 3.700304 3.245547 2.2 6.293252 3.255547 0.2 3.710365 3.255547 0.2 6.293252 3.255547 2 6.293252 3.255547 2.2 3.710365 3.255547 2.2 6.293252 3.385315 0.2 3.711154 3.385315 0.2 6.293252 3.385315 2 6.293252 3.385315 2.2 3.711154 3.385315 2.2 6.293252 3.395315 0.2 3.701215 3.395315 0.2 6.293252 3.395315 2 6.293252 3.395315 2.2 3.701215 3.395315 2.2 6.293252 3.638412 0 -8.506747 3.638412 0 -1.006394 3.638412 2 -8.506747 3.638412 2 -1.006394 3.66736 2 -0.816394 3.66736 2.2 -0.816394 3.674297 0.2 -0.806394 3.674297 2 -0.806394 3.698638 0.2 -0.806394 3.698638 2.2 -0.806394 3.710811 0 6.493252 3.710811 2 6.493252 3.711201 0 6.493606 3.711201 2 6.493606 3.830196 0.2 -0.800694 3.830196 2.2 -0.800694 3.838412 0.2 -8.306747 3.838412 0.2 -7.531215 3.838412 0.2 -7.506215 3.838412 0.2 -5.966673 3.838412 0.2 -5.956673 3.838412 0.2 -5.874869 3.838412 0.2 -5.864869 3.838412 0.2 -0.816394 3.838412 0.2 -0.806394 3.838412 2 -8.306747 3.838412 2 -5.966673 3.838412 2 -5.956673 3.838412 2 -5.874869 3.838412 2 -5.864869 3.838412 2 -0.816394 3.838412 2.2 -5.966673 3.838412 2.2 -5.956673 3.838412 2.2 -5.874869 3.838412 2.2 -5.864869 3.838412 2.2 -0.806394 3.843646 0.2 -0.816394 3.843646 2.2 -0.816394 4.90896 0.2 -4.70745 4.90896 0.2 -3.523995 4.90896 2.2 -4.70745 4.90896 2.2 -3.523995 4.91896 0.2 -4.69745 4.91896 0.2 -3.533995 4.91896 2.2 -4.69745 4.91896 2.2 -3.533995 5.971413 0.2 2.504815 5.971413 2.2 2.504815 5.976646 0.2 -4.69745 5.976646 0.2 -3.533995 5.976646 2.2 -4.69745 5.976646 2.2 -3.533995 5.981879 0.2 2.484815 5.981879 2.2 2.484815 5.986646 0.2 -4.70745 5.986646 0.2 -3.523995 5.986646 2.2 -4.70745 5.986646 2.2 -3.523995 6.109482 0.2 2.484815 6.109482 2.2 2.484815 6.147698 0.2 2.504815 6.147698 2.2 2.504815 6.918563 0.2 -0.987921 6.918563 0.2 -0.866239 6.918563 2.2 -0.987921 6.918563 2.2 -0.866239 6.928563 0.2 -0.977921 6.928563 0.2 -0.876239 6.928563 2.2 -0.977921 6.928563 2.2 -0.876239 7.235869 0.2 -5.956673 7.235869 0.2 -5.874869 7.235869 2.2 -5.956673 7.235869 2.2 -5.874869 7.245869 0.2 -5.966673 7.245869 0.2 -5.864869 7.245869 2.2 -5.966673 7.245869 2.2 -5.864869 7.672716 0.2 -7.931215 7.672716 0.2 -7.531215 7.672716 0.2 -7.506215 7.672716 0.2 -7.131215 8.010385 0.2 -3.738451 8.010385 0.2 -2.554996 8.010385 2.2 -3.738451 8.010385 2.2 -2.554996 8.020385 0.2 -3.728451 8.020385 0.2 -2.564996 8.020385 2.2 -3.728451 8.020385 2.2 -2.564996 8.472715 0.2 -7.931215 8.472715 0.2 -7.531215 8.472715 0.2 -7.506215 8.472715 0.2 -7.131215 9.183839 0.2 -3.728451 9.183839 0.2 -2.564996 9.183839 2.2 -3.728451 9.183839 2.2 -2.564996 9.193839 0.2 -3.738451 9.193839 0.2 -2.554996 9.193839 2.2 -3.738451 9.193839 2.2 -2.554996 10.824373 0.2 -0.987921 10.824373 0.2 -0.977921 10.824373 0.2 -0.876239 10.824373 0.2 -0.866239 10.824373 2.2 -0.987921 10.824373 2.2 -0.977921 10.824373 2.2 -0.876239 10.824373 2.2 -0.866239 10.938413 0.2 -8.306747 10.938413 0.2 -7.531215 10.938413 0.2 -7.506215 10.938413 0.2 6.293252 10.938413 2 -8.306747 10.938413 2 6.293252 11.138412 0 -8.506747 11.138412 0 6.493252 11.138412 2 -8.506747 11.138412 2 6.493252</float_array>
            <technique_common>
              <accessor source="#geom_012_positions_array" count="188" stride="3">
                <param name="X" type="float"/>
                <param name="Y" type="float"/>
                <param name="Z" type="float"/>
              </accessor>
            </technique_common>
          </source>
          <vertices id="geom_012_vertices">
            <input semantic="POSITION" source="#geom_012_positions"/>
          </vertices>
          <triangles count="2" material="mat_012">
            <input semantic="VERTEX" source="#geom_012_vertices" offset="0"/>
            <p>15 14 9 9 14 8</p>
          </triangles>
        </mesh>
      </geometry>

      <geometry id="geom_013" name="material_013">
        <mesh>
          <source id="geom_013_positions">
            <float_array id="geom_013_positions_array" count="564">-3.861588 0 -1.006394 -3.861588 0 6.493606 -3.861588 2 -1.006394 -3.861588 2 6.493606 -3.661588 0.2 -0.806394 -3.661588 0.2 6.293606 -3.661588 0.35 0.591098 -3.661588 0.35 1.091098 -3.661588 0.85 0.591098 -3.661588 0.85 1.091098 -3.661588 2 -0.806394 -3.661588 2 6.293606 -3.660588 0.35 0.591098 -3.660588 0.35 1.091098 -3.660588 0.85 0.591098 -3.660588 0.85 1.091098 -3.235118 0.2 0.441098 -3.235118 0.2 1.241098 -2.835119 0.2 -0.806394 -2.835119 0.2 0.441098 -2.835119 0.2 1.241098 -2.835119 0.2 6.293606 -2.810118 0.2 -0.806394 -2.810118 0.2 0.441098 -2.810118 0.2 1.241098 -2.810118 0.2 6.293606 -2.435118 0.2 0.441098 -2.435118 0.2 1.241098 -0.308958 0.2 2.431931 -0.308958 0.2 3.862179 -0.308958 2.2 2.431931 -0.308958 2.2 3.862179 -0.298958 0.2 2.441931 -0.298958 0.2 3.852179 -0.298958 2.2 2.441931 -0.298958 2.2 3.852179 1.181803 0.2 2.441931 1.181803 0.2 3.852179 1.181803 2.2 2.441931 1.181803 2.2 3.852179 1.191803 0.2 2.431931 1.191803 0.2 3.862179 1.191803 2.2 2.431931 1.191803 2.2 3.862179 3.191695 0.2 6.293252 3.191695 2 6.293252 3.192086 0.2 6.293606 3.192086 2 6.293606 3.245547 0.2 3.700304 3.245547 0.2 6.293252 3.245547 2 6.293252 3.245547 2.2 3.700304 3.245547 2.2 6.293252 3.255547 0.2 3.710365 3.255547 0.2 6.293252 3.255547 2 6.293252 3.255547 2.2 3.710365 3.255547 2.2 6.293252 3.385315 0.2 3.711154 3.385315 0.2 6.293252 3.385315 2 6.293252 3.385315 2.2 3.711154 3.385315 2.2 6.293252 3.395315 0.2 3.701215 3.395315 0.2 6.293252 3.395315 2 6.293252 3.395315 2.2 3.701215 3.395315 2.2 6.293252 3.638412 0 -8.506747 3.638412 0 -1.006394 3.638412 2 -8.506747 3.638412 2 -1.006394 3.66736 2 -0.816394 3.66736 2.2 -0.816394 3.674297 0.2 -0.806394 3.674297 2 -0.806394 3.698638 0.2 -0.806394 3.698638 2.2 -0.806394 3.710811 0 6.493252 3.710811 2 6.493252 3.711201 0 6.493606 3.711201 2 6.493606 3.830196 0.2 -0.800694 3.830196 2.2 -0.800694 3.838412 0.2 -8.306747 3.838412 0.2 -7.531215 3.838412 0.2 -7.506215 3.838412 0.2 -5.966673 3.838412 0.2 -5.956673 3.838412 0.2 -5.874869 3.838412 0.2 -5.864869 3.838412 0.2 -0.816394 3.838412 0.2 -0.806394 3.838412 2 -8.306747 3.838412 2 -5.966673 3.838412 2 -5.956673 3.838412 2 -5.874869 3.838412 2 -5.864869 3.838412 2 -0.816394 3.838412 2.2 -5.966673 3.838412 2.2 -5.956673 3.838412 2.2 -5.874869 3.838412 2.2 -5.864869 3.838412 2.2 -0.806394 3.843646 0.2 -0.816394 3.843646 2.2 -0.816394 4.90896 0.2 -4.70745 4.90896 0.2 -3.523995 4.90896 2.2 -4.70745 4.90896 2.2 -3.523995 4.91896 0.2 -4.69745 4.91896 0.2 -3.533995 4.91896 2.2 -4.69745 4.91896 2.2 -3.533995 5.971413 0.2 2.504815 5.971413 2.2 2.504815 5.976646 0.2 -4.69745 5.976646 0.2 -3.533995 5.976646 2.2 -4.69745 5.976646 2.2 -3.533995 5.981879 0.2 2.484815 5.981879 2.2 2.484815 5.986646 0.2 -4.70745 5.986646 0.2 -3.523995 5.986646 2.2 -4.70745 5.986646 2.2 -3.523995 6.109482 0.2 2.484815 6.109482 2.2 2.484815 6.147698 0.2 2.504815 6.147698 2.2 2.504815 6.918563 0.2 -0.987921 6.918563 0.2 -0.866239 6.918563 2.2 -0.987921 6.918563 2.2 -0.866239 6.928563 0.2 -0.977921 6.928563 0.2 -0.876239 6.928563 2.2 -0.977921 6.928563 2.2 -0.876239 7.235869 0.2 -5.956673 7.235869 0.2 -5.874869 7.235869 2.2 -5.956673 7.235869 2.2 -5.874869 7.245869 0.2 -5.966673 7.245869 0.2 -5.864869 7.245869 2.2 -5.966673 7.245869 2.2 -5.864869 7.672716 0.2 -7.931215 7.672716 0.2 -7.531215 7.672716 0.2 -7.506215 7.672716 0.2 -7.131215 8.010385 0.2 -3.738451 8.010385 0.2 -2.554996 8.010385 2.2 -3.738451 8.010385 2.2 -2.554996 8.020385 0.2 -3.728451 8.020385 0.2 -2.564996 8.020385 2.2 -3.728451 8.020385 2.2 -2.564996 8.472715 0.2 -7.931215 8.472715 0.2 -7.531215 8.472715 0.2 -7.506215 8.472715 0.2 -7.131215 9.183839 0.2 -3.728451 9.183839 0.2 -2.564996 9.183839 2.2 -3.728451 9.183839 2.2 -2.564996 9.193839 0.2 -3.738451 9.193839 0.2 -2.554996 9.193839 2.2 -3.738451 9.193839 2.2 -2.554996 10.824373 0.2 -0.987921 10.824373 0.2 -0.977921 10.824373 0.2 -0.876239 10.824373 0.2 -0.866239 10.824373 2.2 -0.987921 10.824373 2.2 -0.977921 10.824373 2.2 -0.876239 10.824373 2.2 -0.866239 10.938413 0.2 -8.306747 10.938413 0.2 -7.531215 10.938413 0.2 -7.506215 10.938413 0.2 6.293252 10.938413 2 -8.306747 10.938413 2 6.293252 11.138412 0 -8.506747 11.138412 0 6.493252 11.138412 2 -8.506747 11.138412 2 6.493252</float_array>
            <technique_common>
              <accessor source="#geom_013_positions_array" count="188" stride="3">
                <param name="X" type="float"/>
                <param name="Y" type="float"/>
                <param name="Z" type="float"/>
              </accessor>
            </technique_common>
          </source>
          <vertices id="geom_013_vertices">
            <input semantic="POSITION" source="#geom_013_positions"/>
          </vertices>
          <triangles count="2" material="mat_013">
            <input semantic="VERTEX" source="#geom_013_vertices" offset="0"/>
            <p>13 15 7 7 15 9</p>
          </triangles>
        </mesh>
      </geometry>

      <geometry id="geom_014" name="material_014">
        <mesh>
          <source id="geom_014_positions">
            <float_array id="geom_014_positions_array" count="564">-3.861588 0 -1.006394 -3.861588 0 6.493606 -3.861588 2 -1.006394 -3.861588 2 6.493606 -3.661588 0.2 -0.806394 -3.661588 0.2 6.293606 -3.661588 0.35 0.591098 -3.661588 0.35 1.091098 -3.661588 0.85 0.591098 -3.661588 0.85 1.091098 -3.661588 2 -0.806394 -3.661588 2 6.293606 -3.660588 0.35 0.591098 -3.660588 0.35 1.091098 -3.660588 0.85 0.591098 -3.660588 0.85 1.091098 -3.235118 0.2 0.441098 -3.235118 0.2 1.241098 -2.835119 0.2 -0.806394 -2.835119 0.2 0.441098 -2.835119 0.2 1.241098 -2.835119 0.2 6.293606 -2.810118 0.2 -0.806394 -2.810118 0.2 0.441098 -2.810118 0.2 1.241098 -2.810118 0.2 6.293606 -2.435118 0.2 0.441098 -2.435118 0.2 1.241098 -0.308958 0.2 2.431931 -0.308958 0.2 3.862179 -0.308958 2.2 2.431931 -0.308958 2.2 3.862179 -0.298958 0.2 2.441931 -0.298958 0.2 3.852179 -0.298958 2.2 2.441931 -0.298958 2.2 3.852179 1.181803 0.2 2.441931 1.181803 0.2 3.852179 1.181803 2.2 2.441931 1.181803 2.2 3.852179 1.191803 0.2 2.431931 1.191803 0.2 3.862179 1.191803 2.2 2.431931 1.191803 2.2 3.862179 3.191695 0.2 6.293252 3.191695 2 6.293252 3.192086 0.2 6.293606 3.192086 2 6.293606 3.245547 0.2 3.700304 3.245547 0.2 6.293252 3.245547 2 6.293252 3.245547 2.2 3.700304 3.245547 2.2 6.293252 3.255547 0.2 3.710365 3.255547 0.2 6.293252 3.255547 2 6.293252 3.255547 2.2 3.710365 3.255547 2.2 6.293252 3.385315 0.2 3.711154 3.385315 0.2 6.293252 3.385315 2 6.293252 3.385315 2.2 3.711154 3.385315 2.2 6.293252 3.395315 0.2 3.701215 3.395315 0.2 6.293252 3.395315 2 6.293252 3.395315 2.2 3.701215 3.395315 2.2 6.293252 3.638412 0 -8.506747 3.638412 0 -1.006394 3.638412 2 -8.506747 3.638412 2 -1.006394 3.66736 2 -0.816394 3.66736 2.2 -0.816394 3.674297 0.2 -0.806394 3.674297 2 -0.806394 3.698638 0.2 -0.806394 3.698638 2.2 -0.806394 3.710811 0 6.493252 3.710811 2 6.493252 3.711201 0 6.493606 3.711201 2 6.493606 3.830196 0.2 -0.800694 3.830196 2.2 -0.800694 3.838412 0.2 -8.306747 3.838412 0.2 -7.531215 3.838412 0.2 -7.506215 3.838412 0.2 -5.966673 3.838412 0.2 -5.956673 3.838412 0.2 -5.874869 3.838412 0.2 -5.864869 3.838412 0.2 -0.816394 3.838412 0.2 -0.806394 3.838412 2 -8.306747 3.838412 2 -5.966673 3.838412 2 -5.956673 3.838412 2 -5.874869 3.838412 2 -5.864869 3.838412 2 -0.816394 3.838412 2.2 -5.966673 3.838412 2.2 -5.956673 3.838412 2.2 -5.874869 3.838412 2.2 -5.864869 3.838412 2.2 -0.806394 3.843646 0.2 -0.816394 3.843646 2.2 -0.816394 4.90896 0.2 -4.70745 4.90896 0.2 -3.523995 4.90896 2.2 -4.70745 4.90896 2.2 -3.523995 4.91896 0.2 -4.69745 4.91896 0.2 -3.533995 4.91896 2.2 -4.69745 4.91896 2.2 -3.533995 5.971413 0.2 2.504815 5.971413 2.2 2.504815 5.976646 0.2 -4.69745 5.976646 0.2 -3.533995 5.976646 2.2 -4.69745 5.976646 2.2 -3.533995 5.981879 0.2 2.484815 5.981879 2.2 2.484815 5.986646 0.2 -4.70745 5.986646 0.2 -3.523995 5.986646 2.2 -4.70745 5.986646 2.2 -3.523995 6.109482 0.2 2.484815 6.109482 2.2 2.484815 6.147698 0.2 2.504815 6.147698 2.2 2.504815 6.918563 0.2 -0.987921 6.918563 0.2 -0.866239 6.918563 2.2 -0.987921 6.918563 2.2 -0.866239 6.928563 0.2 -0.977921 6.928563 0.2 -0.876239 6.928563 2.2 -0.977921 6.928563 2.2 -0.876239 7.235869 0.2 -5.956673 7.235869 0.2 -5.874869 7.235869 2.2 -5.956673 7.235869 2.2 -5.874869 7.245869 0.2 -5.966673 7.245869 0.2 -5.864869 7.245869 2.2 -5.966673 7.245869 2.2 -5.864869 7.672716 0.2 -7.931215 7.672716 0.2 -7.531215 7.672716 0.2 -7.506215 7.672716 0.2 -7.131215 8.010385 0.2 -3.738451 8.010385 0.2 -2.554996 8.010385 2.2 -3.738451 8.010385 2.2 -2.554996 8.020385 0.2 -3.728451 8.020385 0.2 -2.564996 8.020385 2.2 -3.728451 8.020385 2.2 -2.564996 8.472715 0.2 -7.931215 8.472715 0.2 -7.531215 8.472715 0.2 -7.506215 8.472715 0.2 -7.131215 9.183839 0.2 -3.728451 9.183839 0.2 -2.564996 9.183839 2.2 -3.728451 9.183839 2.2 -2.564996 9.193839 0.2 -3.738451 9.193839 0.2 -2.554996 9.193839 2.2 -3.738451 9.193839 2.2 -2.554996 10.824373 0.2 -0.987921 10.824373 0.2 -0.977921 10.824373 0.2 -0.876239 10.824373 0.2 -0.866239 10.824373 2.2 -0.987921 10.824373 2.2 -0.977921 10.824373 2.2 -0.876239 10.824373 2.2 -0.866239 10.938413 0.2 -8.306747 10.938413 0.2 -7.531215 10.938413 0.2 -7.506215 10.938413 0.2 6.293252 10.938413 2 -8.306747 10.938413 2 6.293252 11.138412 0 -8.506747 11.138412 0 6.493252 11.138412 2 -8.506747 11.138412 2 6.493252</float_array>
            <technique_common>
              <accessor source="#geom_014_positions_array" count="188" stride="3">
                <param name="X" type="float"/>
                <param name="Y" type="float"/>
                <param name="Z" type="float"/>
              </accessor>
            </technique_common>
          </source>
          <vertices id="geom_014_vertices">
            <input semantic="POSITION" source="#geom_014_positions"/>
          </vertices>
          <triangles count="2" material="mat_014">
            <input semantic="VERTEX" source="#geom_014_vertices" offset="0"/>
            <p>12 13 6 6 13 7</p>
          </triangles>
        </mesh>
      </geometry>

      <geometry id="geom_015" name="material_015">
        <mesh>
          <source id="geom_015_positions">
            <float_array id="geom_015_positions_array" count="564">-3.861588 0 -1.006394 -3.861588 0 6.493606 -3.861588 2 -1.006394 -3.861588 2 6.493606 -3.661588 0.2 -0.806394 -3.661588 0.2 6.293606 -3.661588 0.35 0.591098 -3.661588 0.35 1.091098 -3.661588 0.85 0.591098 -3.661588 0.85 1.091098 -3.661588 2 -0.806394 -3.661588 2 6.293606 -3.660588 0.35 0.591098 -3.660588 0.35 1.091098 -3.660588 0.85 0.591098 -3.660588 0.85 1.091098 -3.235118 0.2 0.441098 -3.235118 0.2 1.241098 -2.835119 0.2 -0.806394 -2.835119 0.2 0.441098 -2.835119 0.2 1.241098 -2.835119 0.2 6.293606 -2.810118 0.2 -0.806394 -2.810118 0.2 0.441098 -2.810118 0.2 1.241098 -2.810118 0.2 6.293606 -2.435118 0.2 0.441098 -2.435118 0.2 1.241098 -0.308958 0.2 2.431931 -0.308958 0.2 3.862179 -0.308958 2.2 2.431931 -0.308958 2.2 3.862179 -0.298958 0.2 2.441931 -0.298958 0.2 3.852179 -0.298958 2.2 2.441931 -0.298958 2.2 3.852179 1.181803 0.2 2.441931 1.181803 0.2 3.852179 1.181803 2.2 2.441931 1.181803 2.2 3.852179 1.191803 0.2 2.431931 1.191803 0.2 3.862179 1.191803 2.2 2.431931 1.191803 2.2 3.862179 3.191695 0.2 6.293252 3.191695 2 6.293252 3.192086 0.2 6.293606 3.192086 2 6.293606 3.245547 0.2 3.700304 3.245547 0.2 6.293252 3.245547 2 6.293252 3.245547 2.2 3.700304 3.245547 2.2 6.293252 3.255547 0.2 3.710365 3.255547 0.2 6.293252 3.255547 2 6.293252 3.255547 2.2 3.710365 3.255547 2.2 6.293252 3.385315 0.2 3.711154 3.385315 0.2 6.293252 3.385315 2 6.293252 3.385315 2.2 3.711154 3.385315 2.2 6.293252 3.395315 0.2 3.701215 3.395315 0.2 6.293252 3.395315 2 6.293252 3.395315 2.2 3.701215 3.395315 2.2 6.293252 3.638412 0 -8.506747 3.638412 0 -1.006394 3.638412 2 -8.506747 3.638412 2 -1.006394 3.66736 2 -0.816394 3.66736 2.2 -0.816394 3.674297 0.2 -0.806394 3.674297 2 -0.806394 3.698638 0.2 -0.806394 3.698638 2.2 -0.806394 3.710811 0 6.493252 3.710811 2 6.493252 3.711201 0 6.493606 3.711201 2 6.493606 3.830196 0.2 -0.800694 3.830196 2.2 -0.800694 3.838412 0.2 -8.306747 3.838412 0.2 -7.531215 3.838412 0.2 -7.506215 3.838412 0.2 -5.966673 3.838412 0.2 -5.956673 3.838412 0.2 -5.874869 3.838412 0.2 -5.864869 3.838412 0.2 -0.816394 3.838412 0.2 -0.806394 3.838412 2 -8.306747 3.838412 2 -5.966673 3.838412 2 -5.956673 3.838412 2 -5.874869 3.838412 2 -5.864869 3.838412 2 -0.816394 3.838412 2.2 -5.966673 3.838412 2.2 -5.956673 3.838412 2.2 -5.874869 3.838412 2.2 -5.864869 3.838412 2.2 -0.806394 3.843646 0.2 -0.816394 3.843646 2.2 -0.816394 4.90896 0.2 -4.70745 4.90896 0.2 -3.523995 4.90896 2.2 -4.70745 4.90896 2.2 -3.523995 4.91896 0.2 -4.69745 4.91896 0.2 -3.533995 4.91896 2.2 -4.69745 4.91896 2.2 -3.533995 5.971413 0.2 2.504815 5.971413 2.2 2.504815 5.976646 0.2 -4.69745 5.976646 0.2 -3.533995 5.976646 2.2 -4.69745 5.976646 2.2 -3.533995 5.981879 0.2 2.484815 5.981879 2.2 2.484815 5.986646 0.2 -4.70745 5.986646 0.2 -3.523995 5.986646 2.2 -4.70745 5.986646 2.2 -3.523995 6.109482 0.2 2.484815 6.109482 2.2 2.484815 6.147698 0.2 2.504815 6.147698 2.2 2.504815 6.918563 0.2 -0.987921 6.918563 0.2 -0.866239 6.918563 2.2 -0.987921 6.918563 2.2 -0.866239 6.928563 0.2 -0.977921 6.928563 0.2 -0.876239 6.928563 2.2 -0.977921 6.928563 2.2 -0.876239 7.235869 0.2 -5.956673 7.235869 0.2 -5.874869 7.235869 2.2 -5.956673 7.235869 2.2 -5.874869 7.245869 0.2 -5.966673 7.245869 0.2 -5.864869 7.245869 2.2 -5.966673 7.245869 2.2 -5.864869 7.672716 0.2 -7.931215 7.672716 0.2 -7.531215 7.672716 0.2 -7.506215 7.672716 0.2 -7.131215 8.010385 0.2 -3.738451 8.010385 0.2 -2.554996 8.010385 2.2 -3.738451 8.010385 2.2 -2.554996 8.020385 0.2 -3.728451 8.020385 0.2 -2.564996 8.020385 2.2 -3.728451 8.020385 2.2 -2.564996 8.472715 0.2 -7.931215 8.472715 0.2 -7.531215 8.472715 0.2 -7.506215 8.472715 0.2 -7.131215 9.183839 0.2 -3.728451 9.183839 0.2 -2.564996 9.183839 2.2 -3.728451 9.183839 2.2 -2.564996 9.193839 0.2 -3.738451 9.193839 0.2 -2.554996 9.193839 2.2 -3.738451 9.193839 2.2 -2.554996 10.824373 0.2 -0.987921 10.824373 0.2 -0.977921 10.824373 0.2 -0.876239 10.824373 0.2 -0.866239 10.824373 2.2 -0.987921 10.824373 2.2 -0.977921 10.824373 2.2 -0.876239 10.824373 2.2 -0.866239 10.938413 0.2 -8.306747 10.938413 0.2 -7.531215 10.938413 0.2 -7.506215 10.938413 0.2 6.293252 10.938413 2 -8.306747 10.938413 2 6.293252 11.138412 0 -8.506747 11.138412 0 6.493252 11.138412 2 -8.506747 11.138412 2 6.493252</float_array>
            <technique_common>
              <accessor source="#geom_015_positions_array" count="188" stride="3">
                <param name="X" type="float"/>
                <param name="Y" type="float"/>
                <param name="Z" type="float"/>
              </accessor>
            </technique_common>
          </source>
          <vertices id="geom_015_vertices">
            <input semantic="POSITION" source="#geom_015_positions"/>
          </vertices>
          <triangles count="2" material="mat_015">
            <input semantic="VERTEX" source="#geom_015_vertices" offset="0"/>
            <p>15 13 14 14 13 12</p>
          </triangles>
        </mesh>
      </geometry>
  </library_geometries>
  <library_visual_scenes>
    <visual_scene id="Scene" name="Scene">

        <node id="node_000" name="node_000">
          <instance_geometry url="#geom_000">
            <bind_material>
              <technique_common>
                <instance_material symbol="mat_000" target="#mat_000"/>
              </technique_common>
            </bind_material>
          </instance_geometry>
        </node>

        <node id="node_001" name="node_001">
          <instance_geometry url="#geom_001">
            <bind_material>
              <technique_common>
                <instance_material symbol="mat_001" target="#mat_001"/>
              </technique_common>
            </bind_material>
          </instance_geometry>
        </node>

        <node id="node_002" name="node_002">
          <instance_geometry url="#geom_002">
            <bind_material>
              <technique_common>
                <instance_material symbol="mat_002" target="#mat_002"/>
              </technique_common>
            </bind_material>
          </instance_geometry>
        </node>

        <node id="node_003" name="node_003">
          <instance_geometry url="#geom_003">
            <bind_material>
              <technique_common>
                <instance_material symbol="mat_003" target="#mat_003"/>
              </technique_common>
            </bind_material>
          </instance_geometry>
        </node>

        <node id="node_004" name="node_004">
          <instance_geometry url="#geom_004">
            <bind_material>
              <technique_common>
                <instance_material symbol="mat_004" target="#mat_004"/>
              </technique_common>
            </bind_material>
          </instance_geometry>
        </node>

        <node id="node_005" name="node_005">
          <instance_geometry url="#geom_005">
            <bind_material>
              <technique_common>
                <instance_material symbol="mat_005" target="#mat_005"/>
              </technique_common>
            </bind_material>
          </instance_geometry>
        </node>

        <node id="node_006" name="node_006">
          <instance_geometry url="#geom_006">
            <bind_material>
              <technique_common>
                <instance_material symbol="mat_006" target="#mat_006"/>
              </technique_common>
            </bind_material>
          </instance_geometry>
        </node>

        <node id="node_007" name="node_007">
          <instance_geometry url="#geom_007">
            <bind_material>
              <technique_common>
                <instance_material symbol="mat_007" target="#mat_007"/>
              </technique_common>
            </bind_material>
          </instance_geometry>
        </node>

        <node id="node_008" name="node_008">
          <instance_geometry url="#geom_008">
            <bind_material>
              <technique_common>
                <instance_material symbol="mat_008" target="#mat_008"/>
              </technique_common>
            </bind_material>
          </instance_geometry>
        </node>

        <node id="node_009" name="node_009">
          <instance_geometry url="#geom_009">
            <bind_material>
              <technique_common>
                <instance_material symbol="mat_009" target="#mat_009"/>
              </technique_common>
            </bind_material>
          </instance_geometry>
        </node>

        <node id="node_010" name="node_010">
          <instance_geometry url="#geom_010">
            <bind_material>
              <technique_common>
                <instance_material symbol="mat_010" target="#mat_010"/>
              </technique_common>
            </bind_material>
          </instance_geometry>
        </node>

        <node id="node_011" name="node_011">
          <instance_geometry url="#geom_011">
            <bind_material>
              <technique_common>
                <instance_material symbol="mat_011" target="#mat_011"/>
              </technique_common>
            </bind_material>
          </instance_geometry>
        </node>

        <node id="node_012" name="node_012">
          <instance_geometry url="#geom_012">
            <bind_material>
              <technique_common>
                <instance_material symbol="mat_012" target="#mat_012"/>
              </technique_common>
            </bind_material>
          </instance_geometry>
        </node>

        <node id="node_013" name="node_013">
          <instance_geometry url="#geom_013">
            <bind_material>
              <technique_common>
                <instance_material symbol="mat_013" target="#mat_013"/>
              </technique_common>
            </bind_material>
          </instance_geometry>
        </node>

        <node id="node_014" name="node_014">
          <instance_geometry url="#geom_014">
            <bind_material>
              <technique_common>
                <instance_material symbol="mat_014" target="#mat_014"/>
              </technique_common>
            </bind_material>
          </instance_geometry>
        </node>

        <node id="node_015" name="node_015">
          <instance_geometry url="#geom_015">
            <bind_material>
              <technique_common>
                <instance_material symbol="mat_015" target="#mat_015"/>
              </technique_common>
            </bind_material>
          </instance_geometry>
        </node>
    </visual_scene>
  </library_visual_scenes>
  <scene>
    <instance_visual_scene url="#Scene"/>
  </scene>
</COLLADA>
